<?xml version="1.0" encoding="UTF-8" standalone="no"?>
<svg xmlns="http://www.w3.org/2000/svg" height="376px" width="342px" version="1.1" xmlns:xlink="http://www.w3.org/1999/xlink" viewBox="0 0 342 376"><!-- Generator: Sketch 43.2 (39069) - http://www.bohemiancoding.com/sketch -->
 <title>BIG ICON</title>
 <desc>Created with Sketch.</desc>
 <g id="Page-1" fill-rule="evenodd" fill="none">
  <g id="Desktop-HD" fill="#fff" transform="translate(-789 -456)">
   <g id="Group" transform="translate(285 456)">
    <g id="BIG-ICON" transform="translate(504)">
     <path id="Fill-1" d="m308.43 171.97c0-76.351-61.69-151.97-137.79-151.97-38.9 0-74.019 16.203-99.074 42.221-3.245 3.108-6.489 6.489-9.672 10.191-7.261 8.467-14.102 18.62-19.667 30.228-5.527 11.6-9.773 24.71-11.809 38.69-1.076 6.98-1.519 14.19-1.399 21.47 0.112 7.29 0.726 14.67 2.112 22 0.267 1.84 0.713 3.66 1.127 5.48 0.41 1.82 0.807 3.65 1.379 5.49 0.515 1.83 1.029 3.73 1.582 5.5l1.735 5.12c2.596 7.3 5.808 14 9.504 20.65 7.451 13.18 17.164 25 28.1 35.04 5.525 4.96 11.292 9.57 17.305 13.69 6.062 4.03 12.227 7.81 18.607 10.96 6.38 3.1 12.81 5.98 19.33 8.22 1.65 0.54 3.43 1.15 4.96 1.6l2.31 0.7 0.58 0.17c0.14 0.04 0.06 0.03 0.41 0.11l0.32 0.07 1.31 0.31c3.48 0.8 6.85 1.32 10.16 1.75 13.16 1.6 25.44 1.56 36.88 0.96 11.43-0.69 21.98-2.17 31.44-4.22 9.45-2.11 17.8-4.85 24.67-7.88 3.45-1.51 6.53-3.06 9.19-4.55 2.64-1.55 4.87-2.91 6.95-4.43 1.65-1.17 2.91-2.07 3.76-2.67 0.73-0.52 1.11-0.77 1.11-0.77 1.79-1.25 3.47-2.87 4.79-4.77 0.03-0.06 0.07-0.1 0.11-0.15 5.83-8.59 3.63-20.3-4.93-26.15-8.57-5.86-20.22-3.63-26.07 4.95l-0.05 0.05s-0.88 1.32-2.56 3.81c-0.32 0.44-0.45 0.86-1 1.49-0.52 0.6-1.09 1.25-1.69 1.96-1.32 1.39-2.88 3.03-4.92 4.66-0.99 0.81-2.09 1.65-3.27 2.49-0.94 0.66-3.06-0.06-1.72-2.14 0.81-1.24 1.17-2.09 1.56-2.87 0.38-0.81 0.72-1.5 0.99-2.06 0.57-1.16 0.88-1.81 0.88-1.81 0.23-0.48 0.42-1.04 0.55-1.6 0.88-3.91-1.58-7.8-5.5-8.69-3.9-0.88-7.79 1.59-8.66 5.52 0 0-0.16 0.71-0.43 1.95-0.14 0.61-0.32 1.37-0.51 2.24-0.19 0.86-0.38 1.93-0.7 2.56-0.28 0.77-0.59 1.62-0.9 2.51-0.23 0.93-0.91 1.9-1.42 2.92-0.62 0.99-1.05 2.21-1.88 3.12-0.76 1.01-1.53 2.03-2.3 3.05-0.85 0.95-1.82 1.81-2.72 2.72-0.88 0.97-1.92 1.69-2.93 2.41-1.02 0.68-1.94 1.53-2.96 2.04-1.02 0.54-1.99 1.05-2.88 1.52-0.45 0.23-0.89 0.46-1.29 0.67-0.32 0.11-0.62 0.21-0.9 0.31-2.04 0.49-4.11 0.97-6.26 1.37-3.25 0.64-6.68 1.15-10.18 1.55-1.7 0.19-2.02-0.86-1.19-1.86 0.26-0.28 0.48-0.53 0.66-0.74 0.36-0.41 0.57-0.65 0.57-0.65l0.03-0.03 0.34-0.49c0.79-1.4 0.28-3.18-1.12-3.96s-3.16-0.27-3.95 1.13l-0.42 0.76c-0.13 0.24-0.29 0.52-0.48 0.86-0.19 0.36-0.37 0.54-0.57 0.88-0.37 0.63-1 1.27-1.68 1.97-0.39 0.29-0.8 0.6-1.2 0.92-0.45 0.27-0.94 0.48-1.43 0.75-0.46 0.3-1.02 0.41-1.56 0.6-0.55 0.14-1.06 0.41-1.62 0.47-0.63 0.11-1.25 0.23-1.85 0.33-2.36 0.01-4.75-0.01-7.16-0.14-2.88-0.21-5.87-0.56-8.92-1.04-0.67-0.12-1.35-0.25-2.02-0.39-16.51-3.5-33.72-10.66-49.398-22.27-9.748-7.15-18.786-16.06-26.481-26.42-2.61-3.72-5.048-7.57-7.257-11.55-3.331-5.98-6.314-12.39-8.597-18.64l-1.829-5.07c-0.559-1.66-0.985-3.22-1.49-4.82-0.52-1.57-0.907-3.25-1.319-4.9-0.41-1.65-0.842-3.31-1.15-4.97-1.477-6.63-2.27-13.34-2.595-20.01-0.33-6.65-0.14-13.27 0.646-19.72 1.428-12.91 4.932-25.17 9.72-36.15 4.823-10.976 10.902-20.692 17.465-28.883 6.572-8.202 13.56-14.946 20.203-20.336 1.773-1.44 3.518-2.778 5.231-4.034 6.751-4.658 13.911-8.632 21.331-11.816 2.53-1.156 5.13-2.114 7.71-3.08 0.58-0.198 1.45-0.56 1.79-0.653l2.08-0.654 4.17-1.327c5.08-1.347 10.38-2.685 15.74-3.432 10.68-1.621 21.38-1.67 31.69-0.521 20.65 2.263 39.74 9.754 55.07 20.4 15.48 10.483 27.28 23.894 35.24 37.651 4.01 6.862 7.15 13.795 9.56 20.565 0.28 0.85 0.55 1.71 0.84 2.55l0.4 1.26 0.2 0.62 0.1 0.3c-0.04-0.1 0.16 0.45-0.07-0.17l0.05 0.17c0.53 1.91 1.06 3.78 1.57 5.63 0.34 1.54 0.65 3.05 0.99 4.55 0.28 1.6 0.57 3.18 0.85 4.74 2.06 12.48 1.59 23.45 0.44 32.24-1.16 8.79-3.2 15.42-4.68 19.86-0.71 2.22-1.38 3.88-1.83 5-0.43 1.12-0.65 1.7-0.65 1.7l-0.13 0.34c-0.46 1.21-0.82 2.47-1.08 3.79-2.58 12.91 5.76 25.47 18.63 28.05s25.39-5.79 27.97-18.7c0 0 0.17-0.86 0.5-2.54 0.34-1.67 0.83-4.14 1.31-7.4 0.18-1.17 0.36-2.49 0.53-3.86-8.68-0.56-15.57-7.78-15.57-16.62"/>
     <path id="Fill-3" opacity="0.3" d="m270.5 270.44c-0.53 0-1.05 0.04-1.57 0.05-1.32 1.91-2.99 3.52-4.79 4.77 0 0-0.38 0.25-1.11 0.77-0.85 0.59-2.11 1.5-3.76 2.66-2.08 1.52-4.31 2.88-6.95 4.43-2.65 1.49-5.73 3.03-9.18 4.54-6.86 3.02-15.22 5.76-24.65 7.87-9.46 2.05-20.01 3.52-31.43 4.21-11.43 0.59-23.71 0.63-36.87-0.96-3.31-0.43-6.67-0.95-10.15-1.75l-1.31-0.31-0.32-0.07c-0.35-0.08-0.26-0.07-0.41-0.11l-0.58-0.17-2.31-0.69c-1.53-0.45-3.31-1.06-4.95-1.61-6.52-2.24-12.95-5.1-19.33-8.2-6.38-3.14-12.537-6.92-18.596-10.94-6.01-4.11-11.775-8.72-17.297-13.66-10.928-10.03-20.639-21.83-28.085-34.98-3.696-6.64-6.907-13.33-9.501-20.62l-1.733-5.11c-0.552-1.76-1.069-3.66-1.583-5.49-0.572-1.83-0.969-3.66-1.376-5.48-0.416-1.82-0.862-3.63-1.129-5.47-1.383-7.31-2-14.69-2.111-21.96-0.12-7.27 0.323-14.47 1.398-21.43 2.036-13.96 6.28-27.04 11.804-38.63 5.562-11.584 12.401-21.719 19.657-30.172 3.182-3.695 6.424-7.072 9.669-10.173 25.043-25.972 60.143-42.147 99.033-42.147 76.06-0.003 137.73 75.487 137.73 151.7 0 8.83 6.88 16.04 15.55 16.59 0.36 0.03 0.72 0.06 1.08 0.06 9.19 0 16.63-7.46 16.63-16.65 0-94.611-76.56-171.31-170.99-171.31-94.429 0-170.98 76.699-170.98 171.31 0.0022267 94.6 76.551 171.3 170.98 171.3 18.21 0 35.73-2.92 52.18-8.2 1.66-0.38 3.5-0.94 5.5-1.22 1.07-0.17 2.17-0.36 3.29-0.55 1.11-0.06 2.23-0.11 3.34-0.19 1.12-0.14 2.18 0.13 3.24 0.17 0.53 0.03 1.04 0.07 1.55 0.12 0.49 0.12 0.97 0.25 1.44 0.36 0.92 0.27 1.91 0.37 2.63 0.74 0.74 0.31 1.43 0.61 2.06 0.89 0.58 0.16 1.32 0.63 1.97 1.04 0.65 0.37 1.19 0.71 1.66 0.98 0.92 0.54 1.44 0.85 1.44 0.85 0.33 0.2 0.72 0.38 1.1 0.51 2.96 0.99 6.17-0.61 7.15-3.57 1-2.97-0.6-6.18-3.56-7.17l-0.03-0.01s-0.59-0.2-1.59-0.54c-0.51-0.16-1.14-0.36-1.83-0.61-3.18-1.09-2.28-2.65-0.95-2.91 1.16-0.24 2.37-0.35 3.63-0.35 10.53 0 19.08 8.56 19.08 19.13 0 18.74 15.17 33.92 33.85 33.92 18.71 0 33.87-15.18 33.87-33.92 0-39.57-32.01-71.64-71.5-71.64"/>
     <path id="Fill-6" opacity="0.3" d="m173.27 171.98h-19.65l-14.62 22.02h91l-30.27-47.95c-10.01-0.31-19.89-0.66-29.67-1.05l9.18 14.82c1.33 2.05 2.71 4.24 4.15 6.59s2.71 4.29 3.8 5.83c-1.87-0.17-4.07-0.26-6.6-0.26h-7.32z"/>
     <path id="Fill-8" opacity="0.3" d="m100 194h28.38l31.62-49.66c-9.26-0.4-18.42-0.85-27.44-1.34l-32.56 51z"/>
     <path id="Fill-10" d="m180.67 115.82c-1.7-2.79-3.74-5.13-6.16-7.01-2.43-1.87-5.44-2.81-9.04-2.81-3.77 0-6.88 1-9.33 3.01-2.46 2.01-4.49 4.28-6.11 6.81l-17.03 27.33c8.97 0.49 18.07 0.95 27.27 1.36l4.73-7.6 4.79 8.02c9.62 0.4 19.35 0.76 29.21 1.07l-18.33-30.18z"/>
    </g>
   </g>
  </g>
 </g>
</svg>
