<svg id="Calque_1" data-name="Calque 1" xmlns="http://www.w3.org/2000/svg" viewBox="0 0 130 88"><defs><style>.cls-1,.cls-2{fill:#fff;}.cls-1{opacity:0.3;isolation:isolate;}</style></defs><title>Plan de travail 1</title><path id="Fill-6" class="cls-1" d="M73.27,66H53.62L39,88h91L99.73,40.05q-15-.46-29.67-1l9.18,14.82c1.33,2,2.71,4.24,4.15,6.59s2.71,4.29,3.8,5.83Q84.39,66,80.59,66Z"/><path id="Fill-8" class="cls-1" d="M0,88H28.38L60,38.34Q46.11,37.74,32.56,37Z"/><path id="Fill-10" class="cls-2" d="M80.67,9.82a25.64,25.64,0,0,0-6.16-7,14.38,14.38,0,0,0-9-2.81,14.22,14.22,0,0,0-9.33,3A28.87,28.87,0,0,0,50,9.82L33,37.15q13.45.74,27.27,1.36L65,30.91l4.79,8Q84.22,39.53,99,40Z"/></svg>