<?xml version="1.0" encoding="UTF-8" standalone="no"?>
<svg xmlns="http://www.w3.org/2000/svg" height="32px" width="261px" version="1.1" xmlns:xlink="http://www.w3.org/1999/xlink" viewBox="0 0 261 32"><!-- Generator: Sketch 43.2 (39069) - http://www.bohemiancoding.com/sketch -->
 <title>LOGO</title>
 <desc>Created with Sketch.</desc>
 <defs>
  <path id="path-1" d="m172.59 18.993v-8.905c0-0.5563 0.07-1.0397 0.22-1.443 0.14-0.4067 0.34-0.7383 0.58-0.99 0.24-0.255 0.52-0.44 0.84-0.5583 0.32-0.1184 0.64-0.1784 0.99-0.1784 0.29 0 0.59 0.055 0.89 0.1667 0.31 0.1083 0.65 0.3567 1.04 0.745l9.55 9.338v-9.9713h4.4v11.796h-9.23l-4.91-4.796v4.796h-4.37zm-24.21 0l6.62-10.173c0.33-0.49 0.74-0.93 1.23-1.32 0.5-0.3867 1.13-0.5817 1.89-0.5817 0.73 0 1.34 0.1817 1.83 0.5467 0.49 0.3617 0.9 0.8167 1.24 1.355l6.46 10.173h-5.82c-0.06-0.093-0.12-0.191-0.18-0.291-0.29-0.464-0.56-0.902-0.83-1.307l-2.79-4.49-3.96 6.088h-5.69zm-60.774 0l6.624-10.173c0.329-0.49 0.738-0.93 1.235-1.32 0.496-0.3867 1.125-0.5817 1.888-0.5817 0.726 0 1.338 0.1817 1.825 0.5467 0.489 0.3617 0.902 0.8167 1.252 1.355l6.45 10.173h-5.82c-0.06-0.093-0.12-0.191-0.18-0.291-0.29-0.464-0.56-0.902-0.83-1.307l-2.79-4.49-3.955 6.088h-5.699zm-87.122 0l6.6216-10.173c0.3253-0.49 0.736-0.93 1.2352-1.32 0.4942-0.3867 1.1229-0.5817 1.8862-0.5817 0.728 0 1.338 0.1817 1.828 0.5467 0.489 0.3617 0.905 0.8167 1.246 1.355l6.451 10.173h-5.816c-0.059-0.093-0.12-0.191-0.182-0.291-0.288-0.464-0.564-0.902-0.826-1.307l-2.796-4.49-3.9532 6.088h-5.6948-0.00005zm253.81 0c0.03-0.128 0.05-0.272 0.05-0.431 0-0.44-0.13-0.749-0.4-0.94-0.26-0.187-0.68-0.275-1.25-0.275h-8.48c-1.01 0-1.88-0.12-2.61-0.357s-1.34-0.567-1.82-0.993c-0.48-0.42-0.84-0.932-1.07-1.532-0.23-0.602-0.35-1.262-0.35-1.992 0-0.795 0.13-1.518 0.39-2.168 0.25-0.65 0.64-1.205 1.19-1.66 0.53-0.46 1.22-0.815 2.07-1.0667 0.85-0.255 1.86-0.3816 3.04-0.3816h13.53l-3.1 4.4153h-10.81c-0.55 0-0.97 0.085-1.24 0.253-0.27 0.17-0.41 0.472-0.41 0.913 0 0.442 0.14 0.749 0.41 0.927 0.27 0.177 0.69 0.265 1.24 0.265h8.48c1.91 0 3.37 0.385 4.36 1.155 0.99 0.768 1.49 1.932 1.49 3.49 0 0.128 0 0.254-0.01 0.378h-4.7zm-31.3 0v-0.456l-9.5-11.34 6.19-0.0003 3.73 4.7183c0.12 0.152 0.29 0.352 0.49 0.597s0.41 0.501 0.63 0.775c0.21 0.27 0.42 0.523 0.6 0.76 0.19 0.236 0.32 0.415 0.4 0.533 0.16-0.237 0.38-0.562 0.67-0.965 0.3-0.405 0.73-0.98 1.28-1.725l3.55-4.6933h6.05l-9.25 11.365v0.431h-4.84zm-23.2 0v-7.381h-7.31l3.12-4.4153h17.7l-3.12 4.4153h-5.57v7.381h-4.82zm-72.07 0v-11.796l4.82-0.0003v11.796h-4.82zm-14.97 0v-7.381h-7.32l3.13-4.4153h17.7l-3.12 4.4153h-5.57v7.381h-4.82zm-36.527 0c0.161-0.681 0.242-1.425 0.242-2.233v-9.5633h-4.845v9.5633c0 0.593-0.081 1.102-0.243 1.522-0.104 0.267-0.249 0.504-0.436 0.711h5.282zm-19.965 0c-0.163-0.678-0.244-1.422-0.244-2.233v-9.5633h4.798v9.5633c0 0.627 0.077 1.152 0.232 1.575 0.091 0.246 0.228 0.466 0.413 0.658h-5.199zm24.886-18.135c-0.566 0.53667-0.847 1.29-0.847 2.2567 0 0.9717 0.422 1.7033 1.269 2.195l-1.789 3.965h2.873l2.777-3.92c0.564-0.8017 0.849-1.6217 0.849-2.47 0-0.845-0.293-1.53-0.874-2.0533-0.585-0.5217-1.29-0.78337-2.14-0.78337-0.851 0.000003-1.553 0.27167-2.118 0.81z"/>
 </defs>
 <g id="Page-1" fill-rule="evenodd" fill="none">
  <g id="Desktop-HD" transform="translate(-55 -18)">
   <g id="LOGO" transform="translate(55 18)">
    <path id="Fill-1" fill="#004A99" d="m255.17 16.266c1.91 0 3.36 0.394 4.35 1.184 0.98 0.789 1.48 1.979 1.48 3.576 0 0.883-0.12 1.679-0.37 2.387-0.25 0.713-0.64 1.31-1.19 1.795-0.54 0.487-1.23 0.859-2.07 1.119-0.84 0.261-1.86 0.389-3.03 0.389h-14.46l3.09-4.471h11.74c0.57 0 0.99-0.099 1.25-0.297 0.27-0.2 0.4-0.526 0.4-0.977s-0.13-0.768-0.4-0.963c-0.26-0.191-0.68-0.282-1.25-0.282h-8.45c-1.01 0-1.87-0.123-2.6-0.365-0.73-0.243-1.33-0.581-1.81-1.017-0.48-0.432-0.84-0.956-1.07-1.571-0.23-0.616-0.35-1.293-0.35-2.041 0-0.814 0.13-1.556 0.39-2.222 0.25-0.666 0.64-1.234 1.18-1.701 0.53-0.469 1.22-0.8349 2.07-1.0928 0.84-0.2613 1.85-0.3911 3.03-0.3911h13.48l-3.09 4.5239h-10.76c-0.56 0-0.98 0.087-1.25 0.26-0.27 0.174-0.4 0.485-0.4 0.936 0 0.452 0.13 0.767 0.4 0.951 0.27 0.181 0.69 0.27 1.25 0.27h8.44zm-16.01-6.9409l-9.22 11.646v5.745h-4.83v-5.77l-9.47-11.621 6.18 0.0001 3.71 4.8349c0.13 0.157 0.29 0.36 0.49 0.612 0.2 0.251 0.4 0.515 0.62 0.794 0.22 0.276 0.42 0.538 0.61 0.78 0.18 0.241 0.31 0.424 0.39 0.545 0.16-0.242 0.38-0.574 0.68-0.989 0.29-0.415 0.72-1.004 1.27-1.767l3.53-4.8099h6.04zm-23.7 0l-3.11 4.5239h-5.55v12.867h-4.8v-12.867h-7.3l3.11-4.5239h17.65zm-24.77 17.675c-0.31 0-0.62-0.053-0.92-0.167-0.3-0.113-0.64-0.369-1.01-0.766l-9.52-9.569v10.218h-4.36v-14.426c0-0.572 0.07-1.067 0.22-1.481 0.15-0.416 0.34-0.756 0.58-1.0142 0.24-0.2613 0.52-0.4509 0.83-0.5722 0.32-0.1212 0.65-0.1827 0.99-0.1827 0.3 0 0.6 0.0581 0.9 0.1708 0.3 0.111 0.65 0.3655 1.03 0.7634l9.52 9.5689v-10.218l4.38 0.0001v14.403c0 0.568-0.07 1.064-0.22 1.48-0.14 0.415-0.34 0.759-0.58 1.029-0.24 0.266-0.52 0.464-0.84 0.584-0.33 0.121-0.66 0.179-1 0.179zm-35.52-0.284l2.9-4.471h3.9 1.45c0.51 0 0.94 0.017 1.32 0.053-0.22-0.312-0.48-0.707-0.76-1.183-0.29-0.475-0.56-0.923-0.82-1.339l-2.79-4.601-7.29 11.541h-5.69l9.96-15.727c0.33-0.503 0.74-0.953 1.23-1.3531 0.5-0.3962 1.13-0.596 1.88-0.596 0.73 0 1.34 0.1862 1.82 0.5602 0.5 0.3706 0.91 0.8369 1.25 1.3889l9.7 15.727h-18.06zm-8.17-4.471l-3.11 4.471h-13.72v-17.391l4.8 0.0001v12.92h12.03zm-18.29-12.92l-3.11 4.5239h-5.55v12.867h-4.8v-12.867h-7.3l3.12-4.5239h17.64zm-34.104 17.391l2.905-4.471h3.899 1.45c0.5 0 0.94 0.017 1.31 0.053-0.22-0.312-0.47-0.707-0.75-1.183-0.29-0.475-0.56-0.923-0.83-1.339l-2.781-4.601-7.292 11.541h-5.689l9.961-15.727c0.328-0.503 0.736-0.953 1.232-1.3531 0.495-0.3962 1.12-0.596 1.881-0.596 0.728 0 1.338 0.1862 1.818 0.5602 0.49 0.3706 0.9 0.8369 1.25 1.3889l9.7 15.727h-18.064zm-15.522-7.591c0 5.25-3.226 7.875-9.679 7.875-1.875 0-3.482-0.162-4.83-0.492-1.345-0.329-2.457-0.823-3.33-1.481-0.873-0.661-1.517-1.475-1.928-2.456-0.411-0.98-0.614-2.126-0.614-3.446v-9.7999h4.782v9.7999c0 0.642 0.076 1.18 0.231 1.614 0.154 0.432 0.446 0.784 0.873 1.05 0.428 0.27 1.022 0.461 1.798 0.574 0.774 0.111 1.78 0.169 3.018 0.169 0.929 0 1.705-0.061 2.319-0.181 0.622-0.123 1.118-0.321 1.488-0.599 0.372-0.277 0.638-0.634 0.801-1.068 0.162-0.43 0.245-0.951 0.245-1.559v-9.7999h4.826v9.7999zm5.083-11.733c-0.842-0.5038-1.264-1.2519-1.264-2.2476 0-0.9906 0.281-1.7642 0.844-2.3142 0.564-0.5516 1.266-0.83 2.111-0.83 0.848 0 1.552 0.2681 2.133 0.8027 0.579 0.5363 0.871 1.2382 0.871 2.1024 0 0.871-0.282 1.7113-0.845 2.5328l-2.768 4.0171h-2.864l1.782-4.0632zm-76.389 19.324l2.9023-4.471h3.895 1.454c0.503 0 0.941 0.017 1.311 0.053-0.216-0.312-0.467-0.707-0.754-1.183-0.287-0.475-0.562-0.923-0.823-1.339l-2.786-4.601-7.2881 11.541h-5.6889l9.9598-15.727c0.3242-0.503 0.7332-0.953 1.2292-1.3531 0.494-0.3962 1.121-0.596 1.882-0.596 0.725 0 1.333 0.1862 1.822 0.5602 0.487 0.3706 0.902 0.8369 1.241 1.3889l9.7 15.727h-18.056-0.0003z"/>
    <g id="Group-5" transform="translate(2 2)">
     <mask id="mask-2" fill="white">
      <use xlink:href="#path-1"/>
     </mask>
     <path id="Fill-3" fill="#44BDE8" mask="url(#mask-2)" d="m134.83-23.689c80.1 0 145.06 9.555 145.06 21.342 0 11.785-64.96 21.34-145.06 21.34-80.098 0-145.05-9.5552-145.05-21.34-0.004-11.787 64.952-21.342 145.05-21.342"/>
    </g>
    <g id="Group-12" transform="translate(25)">
     <path id="Fill-6" fill="#C1E5F8" d="m22.723 23.367l-0.141 0.119c-0.069 0.061-0.288 0.24-0.514 0.395-0.458 0.318-1.155 0.714-2.068 1.029-0.911 0.321-2.031 0.576-3.317 0.699-0.641 0.069-1.326 0.094-2.049 0.079-0.726-0.019-1.487-0.064-2.312-0.27-1.541-0.387-3.1496-1.12-4.5653-2.241-1.4174-1.114-2.647-2.618-3.4358-4.388-0.0999-0.22-0.1929-0.443-0.2756-0.67l-0.0361-0.088-0.031-0.094-0.0586-0.165-0.1102-0.337c-0.1378-0.482-0.2721-0.951-0.3496-1.442-0.1791-0.971-0.2222-1.979-0.1464-2.981 0.043-0.502 0.1102-1.003 0.2204-1.5 0.0982-0.497 0.2377-0.984 0.4065-1.469 0.3358-0.9616 0.8025-1.8896 1.3795-2.7468 1.159-1.7078 2.7728-3.1411 4.6448-4.0556 0.2304-0.1196 0.4704-0.2223 0.7074-0.3251l0.193-0.0808 0.174-0.0623 0.343-0.1297c0.513-0.1667 1.006-0.3183 1.514-0.416 1.006-0.224 2.034-0.3099 3.046-0.2745 2.024 0.0673 3.963 0.6383 5.618 1.5292 1.661 0.8876 3.018 2.1171 4.03 3.4308 0.508 0.6585 0.929 1.3406 1.27 2.021l0.124 0.2543 0.06 0.1264 0.031 0.0656 0.014 0.0287 0.019 0.0438 0.006 0.0151c0.068 0.1533 0.135 0.3032 0.199 0.4514 0.067 0.1785 0.134 0.3555 0.198 0.5305 0.055 0.167 0.11 0.33 0.161 0.492 0.403 1.31 0.543 2.523 0.569 3.518 0.014 1.001-0.073 1.792-0.157 2.326-0.041 0.269-0.081 0.473-0.112 0.613l-0.039 0.207c-0.219 1.065-1.277 1.755-2.362 1.543s-1.789-1.25-1.57-2.311l0.089-0.315 0.011-0.027 0.053-0.141c0.04-0.091 0.095-0.229 0.155-0.411 0.126-0.366 0.298-0.911 0.396-1.635 0.098-0.725 0.136-1.629-0.038-2.66l-0.069-0.391-0.084-0.373c-0.043-0.154-0.088-0.309-0.134-0.464l-0.002-0.015 0.005 0.015-0.009-0.027-0.019-0.048-0.032-0.107-0.071-0.208c-0.201-0.5595-0.468-1.1305-0.804-1.6964-0.674-1.1334-1.669-2.2366-2.976-3.104-1.294-0.8774-2.906-1.4955-4.643-1.6825-0.873-0.0909-1.776-0.0876-2.678 0.0438-0.45 0.0623-0.898 0.1735-1.325 0.2863l-0.354 0.1078-0.174 0.0522-0.15 0.0522c-0.219 0.0826-0.439 0.1617-0.651 0.256-1.7224 0.7242-3.2828 1.9301-4.4005 3.4746-0.2842 0.3806-0.5322 0.7882-0.7629 1.2059-0.2188 0.4244-0.4203 0.8538-0.5822 1.3001-0.3324 0.888-0.5338 1.816-0.6027 2.747-0.0362 0.468-0.0397 0.935-0.0155 1.398 0.0378 0.46 0.0912 0.918 0.1842 1.366 0.0862 0.449 0.2136 0.889 0.3565 1.307l0.1206 0.326 0.062 0.167 0.0293 0.071 0.0327 0.074c0.0878 0.206 0.1808 0.409 0.279 0.61 0.7905 1.595 1.9599 2.917 3.2843 3.867 1.3209 0.956 2.7762 1.547 4.1682 1.837 0.647 0.138 1.338 0.162 1.987 0.153 0.653-0.011 1.271-0.077 1.844-0.166 1.149-0.187 2.105-0.497 2.823-0.834 0.355-0.168 0.653-0.344 0.897-0.507 0.24-0.167 0.429-0.32 0.567-0.451l0.293-0.31 0.119-0.135c0.392-0.45 1.088-0.502 1.548-0.114 0.46 0.385 0.511 1.067 0.119 1.517l-0.124 0.118"/>
     <path id="Fill-8" fill="#4FC2EE" d="m23.591 23.284c-1.044 0-2.053 0.268-2.907 0.726-1.64 0.86-3.51 1.347-5.494 1.347-6.4225 0-11.625-5.098-11.625-11.392-0.0003-6.2938 5.2025-11.392 11.625-11.392 6.418-0.0015 11.626 6.2317 11.626 12.524 0 0.76 0.629 1.376 1.404 1.376 0.777 0 1.404-0.616 1.404-1.376 0-7.8114-6.464-14.146-14.434-14.146-7.9708 0.00024-14.433 6.3346-14.433 14.146 0.00043 7.813 6.4622 14.146 14.433 14.146 1.536 0 3.017-0.243 4.405-0.677 0.141-0.031 0.295-0.078 0.462-0.101l0.28-0.044c0.691-0.068 1.054 0.059 1.633 0.406l0.091 0.04c0.252 0.084 0.52-0.045 0.605-0.291 0.082-0.246-0.052-0.509-0.302-0.591h-0.001l-0.136-0.046-0.154-0.049c-0.268-0.092-0.193-0.222-0.082-0.242l0.306-0.027c0.892-0.004 1.611 0.705 1.611 1.578 0 1.546 1.283 2.801 2.858 2.801 1.578 0 2.859-1.255 2.859-2.801 0-3.266-2.702-5.915-6.034-5.915"/>
     <path id="Fill-10" fill="#C1E5F8" d="m23.052 21.12c-0.725-0.482-1.707-0.298-2.2 0.408l-0.003 0.003s-0.074 0.111-0.219 0.315l-0.083 0.123-0.142 0.163c-0.111 0.113-0.243 0.25-0.416 0.384l-0.275 0.204c-0.079 0.054-0.26-0.005-0.145-0.175l0.133-0.237 0.081-0.171 0.076-0.149 0.044-0.13c0.076-0.324-0.132-0.644-0.463-0.718-0.327-0.072-0.656 0.132-0.73 0.455l-0.036 0.163c-0.198 0.999-0.793 1.69-1.729 2.123l-0.074 0.025c-0.173 0.039-0.35 0.077-0.531 0.113-0.275 0.052-0.565 0.092-0.858 0.128l-0.101-0.154 0.057-0.062 0.046-0.05 0.002-0.004 0.031-0.042-0.095-0.328-0.334 0.094c-0.158 0.327-0.391 0.522-0.756 0.595l-0.153 0.028c-0.202 0-0.405-0.003-0.607-0.015-0.93-0.062-1.978-0.286-2.976-0.685-1.0018-0.403-1.9732-0.992-2.8205-1.745-0.8508-0.751-1.5758-1.656-2.1425-2.651-0.279-0.492-0.5321-1.023-0.7233-1.535l-0.155-0.419-0.1257-0.397-0.1102-0.403-0.0982-0.411c-0.1223-0.546-0.1894-1.098-0.2187-1.649-0.0276-0.547-0.0138-1.094 0.0534-1.625 0.1205-1.066 0.4185-2.077 0.8215-2.9777 0.4064-0.9078 0.9196-1.7078 1.4742-2.3831 0.5528-0.6754 1.1418-1.2312 1.7033-1.6758 0.5614-0.4463 1.097-0.7815 1.5465-1.0358 0.4532-0.2476 0.8232-0.4211 1.0802-0.5322 0.256-0.1044 0.394-0.1634 0.394-0.1634l0.012-0.0034 0.133-0.3115-0.322-0.1365s-0.143 0.0539-0.415 0.1584c-0.271 0.1044-0.662 0.2728-1.1457 0.517-0.4805 0.2526-1.0523 0.5844-1.6585 1.0341-0.6096 0.448-1.2503 1.0156-1.8651 1.7145-0.6114 0.6956-1.1884 1.5344-1.6585 2.4893-0.4668 0.9581-0.825 2.0381-0.9955 3.1901-0.0913 0.576-0.1309 1.17-0.1188 1.768 0.0086 0.601 0.0603 1.211 0.1774 1.816l0.0964 0.453c0.0345 0.148 0.0672 0.298 0.1171 0.451 0.0431 0.152 0.0844 0.305 0.1326 0.453l0.1447 0.421c0.2187 0.603 0.4926 1.154 0.8043 1.703 0.6286 1.085 1.4466 2.06 2.3698 2.888 0.465 0.408 0.9523 0.79 1.4587 1.127 0.5132 0.335 1.0316 0.645 1.5691 0.906 0.541 0.255 1.081 0.49 1.634 0.677l0.417 0.132 0.195 0.059 0.048 0.011 0.036 0.011 0.028 0.006 0.11 0.024c0.291 0.067 0.577 0.111 0.857 0.145 1.11 0.131 2.146 0.129 3.111 0.079 0.964-0.057 1.855-0.179 2.654-0.347 0.797-0.174 1.5-0.401 2.082-0.65 0.287-0.126 0.548-0.251 0.771-0.376 0.224-0.126 0.412-0.241 0.589-0.365l0.317-0.221 0.093-0.062c0.155-0.106 0.302-0.243 0.414-0.406 0.492-0.709 0.306-1.672-0.415-2.156"/>
    </g>
   </g>
  </g>
 </g>
</svg>
