<?xml version="1.0" encoding="UTF-8" standalone="no"?>
<svg xmlns="http://www.w3.org/2000/svg" height="32px" width="261px" version="1.1" xmlns:xlink="http://www.w3.org/1999/xlink" viewBox="0 0 261 32"><!-- Generator: Sketch 43.2 (39069) - http://www.bohemiancoding.com/sketch -->
 <title>Combined Shape</title>
 <desc>Created with Sketch.</desc>
 <g id="Page-1" fill-rule="evenodd" fill="none">
  <g id="Desktop-HD" fill="#fff" transform="translate(-55 -18)">
   <g id="LOGO" transform="translate(55 18)">
    <path id="Combined-Shape" d="m255.17 16.266c1.91 0 3.36 0.394 4.35 1.184 0.98 0.789 1.48 1.979 1.48 3.576 0 0.883-0.12 1.679-0.37 2.387-0.25 0.713-0.64 1.31-1.19 1.795-0.54 0.487-1.23 0.859-2.07 1.119-0.84 0.261-1.86 0.389-3.03 0.389h-14.46l3.09-4.471h11.74c0.57 0 0.99-0.099 1.25-0.297 0.27-0.2 0.4-0.526 0.4-0.977s-0.13-0.768-0.4-0.963c-0.26-0.191-0.68-0.282-1.25-0.282h-8.45c-1.01 0-1.87-0.123-2.6-0.365-0.73-0.243-1.33-0.581-1.81-1.017-0.48-0.432-0.84-0.956-1.07-1.571-0.23-0.616-0.35-1.293-0.35-2.041 0-0.814 0.13-1.556 0.39-2.222 0.25-0.666 0.64-1.234 1.18-1.701 0.53-0.469 1.22-0.8349 2.07-1.0928 0.84-0.2613 1.85-0.3911 3.03-0.3911h13.48l-3.09 4.5239h-10.76c-0.56 0-0.98 0.087-1.25 0.26-0.27 0.174-0.4 0.485-0.4 0.936 0 0.452 0.13 0.767 0.4 0.951 0.27 0.181 0.69 0.27 1.25 0.27h8.44zm-16.01-6.9409l-9.22 11.646v5.745h-4.83v-5.77l-9.47-11.621 6.18 0.0001 3.71 4.8349c0.13 0.157 0.29 0.36 0.49 0.612 0.2 0.251 0.4 0.515 0.62 0.794 0.22 0.276 0.42 0.538 0.61 0.78 0.18 0.241 0.31 0.424 0.39 0.545 0.16-0.242 0.38-0.574 0.68-0.989 0.29-0.415 0.72-1.004 1.27-1.767l3.53-4.8099h6.04zm-23.7 0l-3.11 4.5239h-5.55v12.867h-4.8v-12.867h-7.3l3.11-4.5239h17.65zm-24.77 17.675c-0.31 0-0.62-0.053-0.92-0.167-0.3-0.113-0.64-0.369-1.01-0.766l-9.52-9.569v10.218h-4.36v-14.426c0-0.572 0.07-1.067 0.22-1.481 0.15-0.416 0.34-0.756 0.58-1.0142 0.24-0.2613 0.52-0.4509 0.83-0.5722 0.32-0.1212 0.65-0.1827 0.99-0.1827 0.3 0 0.6 0.0581 0.9 0.1708 0.3 0.111 0.65 0.3655 1.03 0.7634l9.52 9.5689v-10.218l4.38 0.0001v14.403c0 0.568-0.07 1.064-0.22 1.48-0.14 0.415-0.34 0.759-0.58 1.029-0.24 0.266-0.52 0.464-0.84 0.584-0.33 0.121-0.66 0.179-1 0.179zm-35.52-0.284l2.9-4.471h3.9 1.45c0.51 0 0.94 0.017 1.32 0.053-0.22-0.312-0.48-0.707-0.76-1.183-0.29-0.475-0.56-0.923-0.82-1.339l-2.79-4.601-7.29 11.541h-5.69l9.96-15.727c0.33-0.503 0.74-0.953 1.23-1.3531 0.5-0.3962 1.13-0.596 1.88-0.596 0.73 0 1.34 0.1862 1.82 0.5602 0.5 0.3706 0.91 0.8369 1.25 1.3889l9.7 15.727h-18.06zm-8.17-4.471l-3.11 4.471h-13.72v-17.391l4.8 0.0001v12.92h12.03zm-18.29-12.92l-3.11 4.5239h-5.55v12.867h-4.8v-12.867h-7.3l3.12-4.5239h17.64zm-34.104 17.391l2.905-4.471h3.899 1.45c0.5 0 0.94 0.017 1.31 0.053-0.22-0.312-0.47-0.707-0.75-1.183-0.29-0.475-0.56-0.923-0.83-1.339l-2.781-4.601-7.292 11.541h-5.689l9.961-15.727c0.328-0.503 0.736-0.953 1.232-1.3531 0.495-0.3962 1.12-0.596 1.881-0.596 0.728 0 1.338 0.1862 1.818 0.5602 0.49 0.3706 0.9 0.8369 1.25 1.3889l9.7 15.727h-18.064zm-15.522-7.591c0 5.25-3.226 7.875-9.679 7.875-1.875 0-3.482-0.162-4.83-0.492-1.345-0.329-2.457-0.823-3.33-1.481-0.873-0.661-1.517-1.475-1.928-2.456-0.411-0.98-0.614-2.126-0.614-3.446v-9.7999h4.782v9.7999c0 0.642 0.076 1.18 0.231 1.614 0.154 0.432 0.446 0.784 0.873 1.05 0.428 0.27 1.022 0.461 1.798 0.574 0.774 0.111 1.78 0.169 3.018 0.169 0.929 0 1.705-0.061 2.319-0.181 0.622-0.123 1.118-0.321 1.488-0.599 0.372-0.277 0.638-0.634 0.801-1.068 0.162-0.43 0.245-0.951 0.245-1.559v-9.7999h4.826v9.7999zm5.083-11.733c-0.842-0.5038-1.264-1.2519-1.264-2.2476 0-0.9906 0.281-1.7642 0.844-2.3142 0.564-0.5516 1.266-0.83 2.111-0.83 0.848 0 1.552 0.2681 2.133 0.8027 0.579 0.5363 0.871 1.2382 0.871 2.1024 0 0.871-0.282 1.7113-0.845 2.5328l-2.768 4.0171h-2.864l1.782-4.0632zm-50.482-2.0651c-0.141 0.1014-0.285 0.2098-0.431 0.3257-0.561 0.4446-1.15 1.0004-1.703 1.6758-0.555 0.6753-1.068 1.4753-1.474 2.3831-0.403 0.9007-0.701 1.9117-0.822 2.9777-0.067 0.531-0.081 1.078-0.053 1.625 0.029 0.551 0.096 1.103 0.219 1.649l0.098 0.411 0.11 0.403 0.126 0.397 0.155 0.419c0.191 0.512 0.444 1.043 0.723 1.535 0.177 0.311 0.37 0.613 0.577 0.904 0.657 0.875 1.433 1.625 2.272 2.227 1.321 0.956 2.776 1.547 4.168 1.837 0.024 0.005 0.049 0.011 0.074 0.015 0.29 0.047 0.574 0.08 0.848 0.098 0.202 0.012 0.405 0.015 0.607 0.015l0.153-0.028c0.365-0.073 0.598-0.268 0.756-0.595l0.334-0.094 0.095 0.328-0.031 0.042-0.002 0.004-0.046 0.05-0.057 0.062 0.101 0.154c0.293-0.036 0.583-0.076 0.858-0.128 0.181-0.036 0.358-0.074 0.531-0.113l0.074-0.025c0.936-0.433 1.531-1.124 1.729-2.123l0.036-0.163c0.074-0.323 0.403-0.527 0.73-0.455 0.331 0.074 0.539 0.394 0.463 0.718l-0.044 0.13-0.076 0.149-0.081 0.171-0.133 0.237c-0.115 0.17 0.066 0.229 0.145 0.175l0.275-0.204c0.173-0.134 0.305-0.271 0.416-0.384l0.142-0.163 0.083-0.123c0.145-0.204 0.219-0.315 0.219-0.315l0.003-0.003c0.493-0.706 1.475-0.89 2.2-0.408 0.721 0.484 0.907 1.447 0.415 2.156-0.002 0.003-0.005 0.006-0.007 0.009 0.044-0.001 0.087-0.001 0.131-0.001 3.332 0 6.034 2.649 6.034 5.915 0 1.546-1.281 2.801-2.859 2.801-1.575 0-2.858-1.255-2.858-2.801 0-0.873-0.719-1.582-1.611-1.578l-0.306 0.027c-0.111 0.02-0.186 0.15 0.082 0.242l0.154 0.049 0.136 0.046h0.001c0.25 0.082 0.384 0.345 0.302 0.591-0.085 0.246-0.353 0.375-0.605 0.291l-0.091-0.04c-0.579-0.347-0.942-0.474-1.633-0.406l-0.28 0.044c-0.167 0.023-0.321 0.07-0.462 0.101-1.388 0.434-2.869 0.677-4.405 0.677-7.971 0-14.433-6.333-14.433-14.146 0-7.8114 6.462-14.146 14.433-14.146 7.97 0.00024 14.434 6.3346 14.434 14.146 0 0.76-0.627 1.376-1.404 1.376-0.03 0-0.061-0.001-0.091-0.003-0.014 0.113-0.03 0.218-0.045 0.315-0.041 0.269-0.081 0.473-0.112 0.613l-0.039 0.207c-0.219 1.065-1.277 1.755-2.362 1.543s-1.789-1.25-1.57-2.311l0.089-0.315 0.011-0.027 0.053-0.141c0.04-0.091 0.095-0.229 0.155-0.411 0.126-0.366 0.298-0.911 0.396-1.635 0.098-0.725 0.136-1.629-0.038-2.66l-0.069-0.391-0.084-0.373c-0.043-0.154-0.088-0.309-0.134-0.464l-0.002-0.015 0.005 0.015-0.009-0.027-0.019-0.048-0.032-0.107-0.071-0.208c-0.201-0.5595-0.468-1.1305-0.804-1.6964-0.674-1.1334-1.669-2.2366-2.976-3.104-1.294-0.8774-2.906-1.4955-4.643-1.6825-0.873-0.0909-1.776-0.0876-2.678 0.0438-0.45 0.0623-0.898 0.1735-1.325 0.2863l-0.354 0.1078-0.174 0.0522-0.15 0.0522c-0.219 0.0826-0.439 0.1617-0.651 0.256-0.63 0.265-1.239 0.5944-1.812 0.9813zm-25.907 21.389l2.9023-4.471h3.895 1.454c0.503 0 0.941 0.017 1.311 0.053-0.216-0.312-0.467-0.707-0.754-1.183-0.287-0.475-0.562-0.923-0.823-1.339l-2.786-4.601-7.2881 11.541h-5.6889l9.9598-15.727c0.3242-0.503 0.7332-0.953 1.2292-1.3531 0.494-0.3962 1.121-0.596 1.882-0.596 0.725 0 1.333 0.1862 1.822 0.5602 0.487 0.3706 0.902 0.8369 1.241 1.3889l9.7 15.727h-18.056z"/>
   </g>
  </g>
 </g>
</svg>
