<?xml version="1.0" encoding="utf-8"?>
<!-- Generator: Adobe Illustrator 22.1.0, SVG Export Plug-In . SVG Version: 6.00 Build 0)  -->
<svg version="1.1" id="Calque_1" xmlns="http://www.w3.org/2000/svg" xmlns:xlink="http://www.w3.org/1999/xlink" x="0px" y="0px"
	 viewBox="0 0 342 376" style="enable-background:new 0 0 342 376;" xml:space="preserve">
<style type="text/css">
	.st0{fill:#FFFFFF;}
	.st1{opacity:0.3;fill:#FFFFFF;enable-background:new    ;}
</style>
<title>BIG ICON</title>
<desc>Created with Sketch.</desc>
<g id="Page-1">
	<g id="Desktop-HD" transform="translate(-789 -456)">
		<g id="Group" transform="translate(285 456)">
			<g id="BIG-ICON" transform="translate(504)">
				<path id="Fill-1" class="st0" d="M308.4,172c0-76.4-61.7-152-137.8-152c-38.9,0-74,16.2-99.1,42.2c-3.2,3.1-6.5,6.5-9.7,10.2
					c-7.3,8.5-14.1,18.6-19.7,30.2c-5.5,11.6-9.8,24.7-11.8,38.7c-1.1,7-1.5,14.2-1.4,21.5c0.1,7.3,0.7,14.7,2.1,22
					c0.3,1.8,0.7,3.7,1.1,5.5c0.4,1.8,0.8,3.6,1.4,5.5c0.5,1.8,1,3.7,1.6,5.5l1.7,5.1c2.6,7.3,5.8,14,9.5,20.6
					c7.5,13.2,17.2,25,28.1,35c5.5,5,11.3,9.6,17.3,13.7c6.1,4,12.2,7.8,18.6,11c6.4,3.1,12.8,6,19.3,8.2c1.6,0.5,3.4,1.1,5,1.6
					l2.3,0.7l0.6,0.2c0.1,0,0.1,0,0.4,0.1l0.3,0.1l1.3,0.3c3.5,0.8,6.9,1.3,10.2,1.8c13.2,1.6,25.4,1.6,36.9,1
					c11.4-0.7,22-2.2,31.4-4.2c9.4-2.1,17.8-4.9,24.7-7.9c3.4-1.5,6.5-3.1,9.2-4.5c2.6-1.5,4.9-2.9,7-4.4c1.6-1.2,2.9-2.1,3.8-2.7
					c0.7-0.5,1.1-0.8,1.1-0.8c1.8-1.2,3.5-2.9,4.8-4.8c0-0.1,0.1-0.1,0.1-0.1c5.8-8.6,3.6-20.3-4.9-26.1c-8.6-5.9-20.2-3.6-26.1,4.9
					l-0.1,0.1c0,0-0.9,1.3-2.6,3.8c-0.3,0.4-0.4,0.9-1,1.5c-0.5,0.6-1.1,1.2-1.7,2c-1.3,1.4-2.9,3-4.9,4.7c-1,0.8-2.1,1.6-3.3,2.5
					c-0.9,0.7-3.1-0.1-1.7-2.1c0.8-1.2,1.2-2.1,1.6-2.9c0.4-0.8,0.7-1.5,1-2.1c0.6-1.2,0.9-1.8,0.9-1.8c0.2-0.5,0.4-1,0.6-1.6
					c0.9-3.9-1.6-7.8-5.5-8.7c-3.9-0.9-7.8,1.6-8.7,5.5c0,0-0.2,0.7-0.4,1.9c-0.1,0.6-0.3,1.4-0.5,2.2c-0.2,0.9-0.4,1.9-0.7,2.6
					c-0.3,0.8-0.6,1.6-0.9,2.5c-0.2,0.9-0.9,1.9-1.4,2.9c-0.6,1-1.1,2.2-1.9,3.1c-0.8,1-1.5,2-2.3,3c-0.9,1-1.8,1.8-2.7,2.7
					c-0.9,1-1.9,1.7-2.9,2.4c-1,0.7-1.9,1.5-3,2c-1,0.5-2,1-2.9,1.5c-0.4,0.2-0.9,0.5-1.3,0.7c-0.3,0.1-0.6,0.2-0.9,0.3
					c-2,0.5-4.1,1-6.3,1.4c-3.2,0.6-6.7,1.1-10.2,1.5c-1.7,0.2-2-0.9-1.2-1.9c0.3-0.3,0.5-0.5,0.7-0.7c0.4-0.4,0.6-0.6,0.6-0.6l0,0
					l0.3-0.5c0.8-1.4,0.3-3.2-1.1-4s-3.2-0.3-3.9,1.1l-0.4,0.8c-0.1,0.2-0.3,0.5-0.5,0.9c-0.2,0.4-0.4,0.5-0.6,0.9
					c-0.4,0.6-1,1.3-1.7,2c-0.4,0.3-0.8,0.6-1.2,0.9c-0.4,0.3-0.9,0.5-1.4,0.8c-0.5,0.3-1,0.4-1.6,0.6c-0.6,0.1-1.1,0.4-1.6,0.5
					c-0.6,0.1-1.2,0.2-1.9,0.3c-2.4,0-4.8,0-7.2-0.1c-2.9-0.2-5.9-0.6-8.9-1c-0.7-0.1-1.4-0.2-2-0.4c-16.5-3.5-33.7-10.7-49.4-22.3
					c-9.7-7.1-18.8-16.1-26.5-26.4c-2.6-3.7-5-7.6-7.3-11.6c-3.3-6-6.3-12.4-8.6-18.6l-1.8-5.1c-0.6-1.7-1-3.2-1.5-4.8
					c-0.5-1.6-0.9-3.2-1.3-4.9c-0.4-1.6-0.8-3.3-1.2-5c-1.5-6.6-2.3-13.3-2.6-20c-0.3-6.6-0.1-13.3,0.6-19.7
					c1.4-12.9,4.9-25.2,9.7-36.2c4.8-11,10.9-20.7,17.5-28.9c6.6-8.2,13.6-14.9,20.2-20.3c1.8-1.4,3.5-2.8,5.2-4
					c6.8-4.7,13.9-8.6,21.3-11.8c2.5-1.2,5.1-2.1,7.7-3.1c0.6-0.2,1.4-0.6,1.8-0.7l2.1-0.7l4.2-1.3c5.1-1.3,10.4-2.7,15.7-3.4
					c10.7-1.6,21.4-1.7,31.7-0.5c20.6,2.3,39.7,9.8,55.1,20.4c15.5,10.5,27.3,23.9,35.2,37.7c4,6.9,7.1,13.8,9.6,20.6
					c0.3,0.8,0.5,1.7,0.8,2.6l0.4,1.3l0.2,0.6l0.1,0.3c0-0.1,0.2,0.4-0.1-0.2l0,0.2c0.5,1.9,1.1,3.8,1.6,5.6c0.3,1.5,0.6,3.1,1,4.6
					c0.3,1.6,0.6,3.2,0.9,4.7c2.1,12.5,1.6,23.4,0.4,32.2c-1.2,8.8-3.2,15.4-4.7,19.9c-0.7,2.2-1.4,3.9-1.8,5
					c-0.4,1.1-0.6,1.7-0.6,1.7l-0.1,0.3c-0.5,1.2-0.8,2.5-1.1,3.8c-2.6,12.9,5.8,25.5,18.6,28.1s25.4-5.8,28-18.7
					c0,0,0.2-0.9,0.5-2.5c0.3-1.7,0.8-4.1,1.3-7.4c0.2-1.2,0.4-2.5,0.5-3.9C315.3,188,308.4,180.8,308.4,172"/>
				<path id="Fill-3" class="st1" d="M270.5,270.4c-0.5,0-1,0-1.6,0c-1.3,1.9-3,3.5-4.8,4.8c0,0-0.4,0.2-1.1,0.8
					c-0.9,0.6-2.1,1.5-3.8,2.7c-2.1,1.5-4.3,2.9-6.9,4.4c-2.6,1.5-5.7,3-9.2,4.5c-6.9,3-15.2,5.8-24.6,7.9c-9.5,2-20,3.5-31.4,4.2
					c-11.4,0.6-23.7,0.6-36.9-1c-3.3-0.4-6.7-1-10.1-1.8l-1.3-0.3l-0.3-0.1c-0.4-0.1-0.3-0.1-0.4-0.1l-0.6-0.2l-2.3-0.7
					c-1.5-0.5-3.3-1.1-4.9-1.6c-6.5-2.2-12.9-5.1-19.3-8.2c-6.4-3.1-12.5-6.9-18.6-10.9c-6-4.1-11.8-8.7-17.3-13.7
					c-10.9-10-20.6-21.8-28.1-35c-3.7-6.6-6.9-13.3-9.5-20.6l-1.7-5.1c-0.6-1.8-1.1-3.7-1.6-5.5c-0.6-1.8-1-3.7-1.4-5.5
					c-0.4-1.8-0.9-3.6-1.1-5.5c-1.4-7.3-2-14.7-2.1-22c-0.1-7.3,0.3-14.5,1.4-21.4c2-14,6.3-27,11.8-38.6
					C48.2,90.5,55,80.4,62.3,71.9c3.2-3.7,6.4-7.1,9.7-10.2c25-26,60.1-42.1,99-42.1c76.1,0,137.7,75.5,137.7,151.7
					c0,8.8,6.9,16,15.5,16.6c0.4,0,0.7,0.1,1.1,0.1c9.2,0,16.6-7.5,16.6-16.6C342,76.7,265.4,0,171,0C76.6,0,0,76.7,0,171.3
					c0,94.6,76.6,171.3,171,171.3c18.2,0,35.7-2.9,52.2-8.2c1.7-0.4,3.5-0.9,5.5-1.2c1.1-0.2,2.2-0.4,3.3-0.5
					c1.1-0.1,2.2-0.1,3.3-0.2c1.1-0.1,2.2,0.1,3.2,0.2c0.5,0,1,0.1,1.6,0.1c0.5,0.1,1,0.2,1.4,0.4c0.9,0.3,1.9,0.4,2.6,0.7
					c0.7,0.3,1.4,0.6,2.1,0.9c0.6,0.2,1.3,0.6,2,1c0.6,0.4,1.2,0.7,1.7,1c0.9,0.5,1.4,0.9,1.4,0.9c0.3,0.2,0.7,0.4,1.1,0.5
					c3,1,6.2-0.6,7.2-3.6c1-3-0.6-6.2-3.6-7.2l0,0c0,0-0.6-0.2-1.6-0.5c-0.5-0.2-1.1-0.4-1.8-0.6c-3.2-1.1-2.3-2.6-0.9-2.9
					c1.2-0.2,2.4-0.4,3.6-0.4c10.5,0,19.1,8.6,19.1,19.1c0,18.7,15.2,33.9,33.9,33.9c18.7,0,33.9-15.2,33.9-33.9
					C342,302.5,310,270.4,270.5,270.4"/>
				<path id="Fill-6" class="st1" d="M173.3,172h-19.6L139,194h91L199.7,146c-10-0.3-19.9-0.7-29.7-1.1l9.2,14.8
					c1.3,2.1,2.7,4.2,4.1,6.6s2.7,4.3,3.8,5.8c-1.9-0.2-4.1-0.3-6.6-0.3L173.3,172L173.3,172z"/>
				<path id="Fill-8" class="st1" d="M100,194h28.4l31.6-49.7c-9.3-0.4-18.4-0.9-27.4-1.3L100,194z"/>
				<path id="Fill-10" class="st0" d="M180.7,115.8c-1.7-2.8-3.7-5.1-6.2-7c-2.4-1.9-5.4-2.8-9-2.8c-3.8,0-6.9,1-9.3,3
					c-2.5,2-4.5,4.3-6.1,6.8l-17,27.3c9,0.5,18.1,0.9,27.3,1.4l4.7-7.6l4.8,8c9.6,0.4,19.4,0.8,29.2,1.1L180.7,115.8z"/>
			</g>
		</g>
	</g>
</g>
</svg>
