<svg id="Calque_1" data-name="Calque 1" xmlns="http://www.w3.org/2000/svg" viewBox="0 0 342 376"><defs><style>.cls-1,.cls-2{fill:#fff;}.cls-2{opacity:0.3;isolation:isolate;}</style></defs><title>logo_big_icon2</title><g id="Page-1"><g id="Desktop-HD"><g id="Group"><g id="BIG-ICON"><path id="Fill-1" class="cls-1" d="M308.43,172c0-76.35-61.69-152-137.79-152A137.11,137.11,0,0,0,71.57,62.22c-3.25,3.11-6.49,6.49-9.68,10.19a138.59,138.59,0,0,0-19.66,30.23,135.62,135.62,0,0,0-11.81,38.69A127,127,0,0,0,29,162.8a129.41,129.41,0,0,0,2.11,22c.27,1.84.71,3.66,1.13,5.48s.8,3.65,1.38,5.49,1,3.73,1.58,5.5L37,206.39A135.78,135.78,0,0,0,46.46,227a144.35,144.35,0,0,0,28.1,35,159.24,159.24,0,0,0,35.91,24.65A174,174,0,0,0,129.8,295c1.65.54,3.43,1.15,5,1.6l2.31.7.58.17a3.27,3.27,0,0,0,.41.11l.32.07,1.31.31c3.48.8,6.85,1.32,10.16,1.75a210.71,210.71,0,0,0,36.88,1,208.28,208.28,0,0,0,31.44-4.22,134.34,134.34,0,0,0,24.67-7.88c3.45-1.51,6.53-3.06,9.19-4.55a82,82,0,0,0,7-4.43l3.76-2.67c.73-.52,1.11-.77,1.11-.77a19.37,19.37,0,0,0,4.79-4.77.83.83,0,0,1,.11-.15,18.78,18.78,0,1,0-31-21.2l-.05.05s-.88,1.32-2.56,3.81a12.45,12.45,0,0,1-1,1.49c-.52.6-1.09,1.25-1.69,2a47.49,47.49,0,0,1-4.92,4.66c-1,.81-2.09,1.65-3.27,2.49-.94.66-3.06-.06-1.72-2.14a23.39,23.39,0,0,0,1.56-2.87c.38-.81.72-1.5,1-2.06.57-1.16.88-1.81.88-1.81a7.93,7.93,0,0,0,.55-1.6,7.26,7.26,0,1,0-14.16-3.17s-.16.71-.43,2c-.14.61-.32,1.37-.51,2.24a12.62,12.62,0,0,1-.7,2.56c-.28.77-.59,1.62-.9,2.51A16.55,16.55,0,0,1,208.4,263a20,20,0,0,1-1.88,3.12l-2.3,3.05c-.85.95-1.82,1.81-2.72,2.72a17.45,17.45,0,0,1-2.93,2.41,30.79,30.79,0,0,1-3,2l-2.88,1.52-1.29.67-.9.31c-2,.49-4.11,1-6.26,1.37-3.25.64-6.68,1.15-10.18,1.55-1.7.19-2-.86-1.19-1.86.26-.28.48-.53.66-.74l.57-.65,0,0,.34-.49a2.9,2.9,0,1,0-5.07-2.83l-.42.76-.48.86c-.19.36-.37.54-.57.88a11.7,11.7,0,0,1-1.68,2c-.39.29-.8.6-1.2.92s-.94.48-1.43.75a7.11,7.11,0,0,1-1.56.6,11.93,11.93,0,0,1-1.62.47l-1.85.33c-2.36,0-4.75,0-7.16-.14-2.88-.21-5.87-.56-8.92-1-.67-.12-1.35-.25-2-.39a127.84,127.84,0,0,1-49.4-22.27,126,126,0,0,1-26.48-26.42,130.14,130.14,0,0,1-7.26-11.55,131.84,131.84,0,0,1-8.59-18.64L47,197.15c-.56-1.66-1-3.22-1.49-4.82s-.91-3.25-1.32-4.9-.84-3.31-1.15-5a118.69,118.69,0,0,1-2.6-20,115.45,115.45,0,0,1,.65-19.72,125.35,125.35,0,0,1,9.72-36.15A129.52,129.52,0,0,1,68.25,77.7a134.52,134.52,0,0,1,20.2-20.34c1.77-1.44,3.52-2.78,5.23-4A122.72,122.72,0,0,1,115,41.51c2.53-1.16,5.13-2.11,7.71-3.08.58-.2,1.45-.56,1.79-.65l2.08-.66,4.17-1.32a134.07,134.07,0,0,1,15.74-3.44,121.67,121.67,0,0,1,31.69-.52,120.29,120.29,0,0,1,55.07,20.4A116.12,116.12,0,0,1,268.5,89.89a121.93,121.93,0,0,1,9.56,20.57c.28.85.55,1.71.84,2.55l.4,1.26.2.62.1.3c0-.1.16.45-.07-.17l.05.17c.53,1.91,1.06,3.78,1.57,5.63.34,1.54.65,3.05,1,4.55s.57,3.18.85,4.74a109.46,109.46,0,0,1,.44,32.24,103.78,103.78,0,0,1-4.68,19.86c-.71,2.22-1.38,3.88-1.83,5l-.65,1.7-.13.34a23.31,23.31,0,0,0-1.08,3.79,23.76,23.76,0,1,0,46.6,9.35l.5-2.54c.34-1.67.83-4.14,1.31-7.4.18-1.17.36-2.49.53-3.86A16.66,16.66,0,0,1,308.43,172"/><path id="Fill-3" class="cls-2" d="M270.5,270.44c-.53,0-1.05,0-1.57.05a19,19,0,0,1-4.79,4.77s-.38.25-1.11.77-2.11,1.5-3.76,2.66a82,82,0,0,1-6.95,4.43c-2.65,1.49-5.73,3-9.18,4.54a135.16,135.16,0,0,1-24.65,7.87,208.37,208.37,0,0,1-31.43,4.21,212.58,212.58,0,0,1-36.87-1c-3.31-.43-6.67-.95-10.15-1.75l-1.31-.31-.32-.07a4,4,0,0,1-.41-.11l-.58-.17-2.31-.69c-1.53-.45-3.31-1.06-5-1.61a173.79,173.79,0,0,1-19.33-8.2,159.34,159.34,0,0,1-35.89-24.6,144.62,144.62,0,0,1-28.09-35,135.41,135.41,0,0,1-9.5-20.62l-1.73-5.11c-.55-1.76-1.07-3.66-1.59-5.49s-1-3.66-1.37-5.48-.86-3.63-1.13-5.47a129,129,0,0,1-2.11-22,126.47,126.47,0,0,1,1.4-21.43,135.63,135.63,0,0,1,11.8-38.63A138.38,138.38,0,0,1,62.28,71.93c3.18-3.7,6.42-7.07,9.67-10.18a137.14,137.14,0,0,1,99-42.14c76.06,0,137.73,75.48,137.73,151.7a16.62,16.62,0,0,0,15.55,16.59c.36,0,.72.06,1.08.06A16.64,16.64,0,0,0,342,171.31C342,76.7,265.41,0,171,0S0,76.7,0,171.31s76.55,171.3,171,171.3a170.42,170.42,0,0,0,52.18-8.2c1.66-.38,3.5-.94,5.5-1.22l3.29-.55c1.11-.06,2.23-.11,3.34-.19a19.22,19.22,0,0,1,3.24.17c.53,0,1,.07,1.55.12l1.44.36a16.53,16.53,0,0,1,2.63.74l2.06.89a8.78,8.78,0,0,1,2,1c.65.37,1.19.71,1.66,1l1.44.85a5.81,5.81,0,0,0,1.1.51A5.66,5.66,0,0,0,256,327.37h0l-1.59-.54c-.51-.16-1.14-.36-1.83-.61-3.18-1.09-2.28-2.65-1-2.91a17.88,17.88,0,0,1,3.63-.35,19.11,19.11,0,0,1,19.08,19.13,33.86,33.86,0,1,0,67.72,0,71.57,71.57,0,0,0-71.5-71.64"/></g></g></g></g></svg>