<?xml version="1.0" encoding="UTF-8" standalone="no"?>
<svg width="61px" height="51px" viewBox="0 0 61 51" version="1.1" xmlns="http://www.w3.org/2000/svg" xmlns:xlink="http://www.w3.org/1999/xlink">
    <!-- Generator: Sketch 43.2 (39069) - http://www.bohemiancoding.com/sketch -->
    <title>Combined Shape</title>
    <desc>Created with Sketch.</desc>
    <defs>
        <rect id="path-1" x="0" y="0" width="70" height="70"></rect>
    </defs>
    <g id="Page-1" stroke="none" stroke-width="1" fill="none" fill-rule="evenodd">
        <g id="Desktop-HD-Copy" transform="translate(-911.000000, -3749.000000)">
            <g id="Combined-Shape" transform="translate(908.000000, 3740.000000)">
                <mask id="mask-2" fill="white">
                    <use xlink:href="#path-1"></use>
                </mask>
                <g id="Mask"></g>
                <path d="M34.7835736,15.8725847 L35.8320503,17.4452998 C36.1384028,17.9048285 36.0142289,18.5256978 35.5547002,18.8320503 C35.0951715,19.1384028 34.4743022,19.0142289 34.1679497,18.5547002 L33.0403897,16.8633601 C32.7086488,16.9524755 32.3598744,17 32,17 C31.1423699,17 30.3477801,16.7300919 29.6965408,16.2705858 L19.7162278,19.1486833 C18.4050033,19.5857581 17.7348548,20.8422867 18.1574379,22.1113606 L26.3486833,49.2837722 C26.7857581,50.5949967 28.0422867,51.2651452 29.3113606,50.8425621 L56.4837722,42.6513167 C57.7949967,42.2142419 58.4651452,40.9577133 58.0431546,39.6905975 L49.8513167,12.7162278 C49.4142419,11.4050033 48.1577133,10.7348548 46.8812704,11.1596285 L35.7384833,14.4256179 C35.5281911,14.976758 35.1995266,15.4694415 34.7835736,15.8725847 Z M33.1610265,14.6286935 C33.6689063,14.2659984 34,13.6716648 34,13 C34,11.8954305 33.1045695,11 32,11 C30.8954305,11 30,11.8954305 30,13 C30,14.1045695 30.8954305,15 32,15 C32.2538917,15 32.4967339,14.9526911 32.720192,14.8664077 C32.758628,14.8308771 32.8003603,14.7979094 32.8452998,14.7679497 C32.9446079,14.7017443 33.051451,14.6556458 33.1610265,14.6286935 Z M35.9360354,12.2836485 L46.2837722,9.2513167 C48.5961328,8.48052984 50.9695419,9.74634801 51.7568454,12.1094025 L59.9486833,39.0837722 C60.7194702,41.3961328 59.453652,43.7695419 57.0886394,44.5574379 L29.9162278,52.7486833 C27.9989748,53.3877676 26.0397534,52.6267665 24.9770966,51 L16,51 C13.8477153,51 12,49.1522847 12,47 L12,39.9046717 C11.9532779,39.8788638 11.9059076,39.8490399 11.8579762,39.8149553 C10.9569319,39.1742127 10.5486209,39 9.625,39 C8.70137913,39 8.29306808,39.1742127 7.39202379,39.8149553 C6.18369308,40.6742127 5.42012913,41 4,41 C3.44771525,41 3,40.5522847 3,40 C3,39.4477153 3.44771525,39 4,39 C4.92362087,39 5.33193192,38.8257873 6.23297621,38.1850447 C7.44130692,37.3257873 8.20487087,37 9.625,37 C10.6100418,37 11.2791968,37.1567429 12,37.5395362 L12,17 C12,14.8477153 13.8477153,13 16,13 L28,13 C28,10.790861 29.790861,9 32,9 C33.9646098,9 35.5984151,10.4163429 35.9360354,12.2836485 Z M24.1746778,49 L16.2513167,22.7162278 C15.4805298,20.4038672 16.746348,18.0304581 19.1228393,17.2391764 L26.8853176,15 L16,15 C14.9522847,15 14,15.9522847 14,17 L14,47 C14,48.0477153 14.9522847,49 16,49 L24.1746778,49 Z M63,58 C63.5522847,58 64,58.4477153 64,59 C64,59.5522847 63.5522847,60 63,60 C61.5798709,60 60.8163069,59.6742127 59.6079762,58.8149553 C58.7069319,58.1742127 58.2986209,58 57.375,58 C56.4513791,58 56.0430681,58.1742127 55.1420238,58.8149553 C53.9336931,59.6742127 53.1701291,60 51.75,60 C50.3298709,60 49.5663069,59.6742127 48.3579762,58.8149553 C47.4569319,58.1742127 47.0486209,58 46.125,58 C45.2013791,58 44.7930681,58.1742127 43.8920238,58.8149553 C42.6836931,59.6742127 41.9201291,60 40.5,60 C39.0798709,60 38.3163069,59.6742127 37.1079762,58.8149553 C36.2069319,58.1742127 35.7986209,58 34.875,58 C33.9513791,58 33.5430681,58.1742127 32.6420238,58.8149553 C31.4336931,59.6742127 30.6701291,60 29.25,60 C27.8298709,60 27.0663069,59.6742127 25.8579762,58.8149553 C24.9569319,58.1742127 24.5486209,58 23.625,58 C22.7013791,58 22.2930681,58.1742127 21.3920238,58.8149553 C20.1836931,59.6742127 19.4201291,60 18,60 C17.4477153,60 17,59.5522847 17,59 C17,58.4477153 17.4477153,58 18,58 C18.9236209,58 19.3319319,57.8257873 20.2329762,57.1850447 C21.4413069,56.3257873 22.2048709,56 23.625,56 C25.0451291,56 25.8086931,56.3257873 27.0170238,57.1850447 C27.9180681,57.8257873 28.3263791,58 29.25,58 C30.1736209,58 30.5819319,57.8257873 31.4829762,57.1850447 C32.6913069,56.3257873 33.4548709,56 34.875,56 C36.2951291,56 37.0586931,56.3257873 38.2670238,57.1850447 C39.1680681,57.8257873 39.5763791,58 40.5,58 C41.4236209,58 41.8319319,57.8257873 42.7329762,57.1850447 C43.9413069,56.3257873 44.7048709,56 46.125,56 C47.5451291,56 48.3086931,56.3257873 49.5170238,57.1850447 C50.4180681,57.8257873 50.8263791,58 51.75,58 C52.6736209,58 53.0819319,57.8257873 53.9829762,57.1850447 C55.1913069,56.3257873 55.9548709,56 57.375,56 C58.7951291,56 59.5586931,56.3257873 60.7670238,57.1850447 C61.6680681,57.8257873 62.0763791,58 63,58 Z" fill="#999999" fill-rule="nonzero" mask="url(#mask-2)"></path>
            </g>
        </g>
    </g>
</svg>