<?xml version="1.0" encoding="UTF-8" standalone="no"?>
<svg width="50px" height="66px" viewBox="0 0 50 66" version="1.1" xmlns="http://www.w3.org/2000/svg" xmlns:xlink="http://www.w3.org/1999/xlink">
    <!-- Generator: Sketch 43.2 (39069) - http://www.bohemiancoding.com/sketch -->
    <title>coffee-cup</title>
    <desc>Created with Sketch.</desc>
    <defs>
        <rect id="path-1" x="0" y="0" width="70" height="70"></rect>
    </defs>
    <g id="Page-1" stroke="none" stroke-width="1" fill="none" fill-rule="evenodd">
        <g id="Desktop-HD-Copy" transform="translate(-1100.000000, -3742.000000)">
            <g id="coffee-cup" transform="translate(1088.000000, 3740.000000)">
                <mask id="mask-2" fill="white">
                    <use xlink:href="#path-1"></use>
                </mask>
                <g id="Mask"></g>
                <path d="M55.3339584,34.47991 L51.6676355,34.47991 L52.0009376,31.2396346 C52.0564879,30.6250996 51.6120852,30.0664315 51.0010314,30.0105646 C50.3899775,29.9546978 49.8344741,30.4016324 49.7789237,31.0161673 L47.1680574,58.6702416 C46.779205,62.6926524 43.4461842,65.7653273 39.4465593,65.7653273 L24.5590663,65.7653273 C20.503891,65.7653273 17.1708702,62.7485192 16.8375682,58.6702416 L14.3378026,32.2452373 L37.002344,32.2452373 C37.6133978,32.2452373 38.1133509,31.742436 38.1133509,31.127901 C38.1133509,30.513366 37.6133978,30.0105646 37.002344,30.0105646 L13.6711984,30.0105646 C13.5600977,30.0105646 13.5045474,30.0105646 13.3934467,30.0664315 C13.282346,30.0105646 13.1156949,30.0105646 13.0045942,30.0105646 C12.3935404,30.0664315 11.9491376,30.6250996 12.004688,31.2396346 L14.6155543,58.8937089 C15.0599571,64.0893228 19.3373338,68 24.5590663,68 L39.4465593,68 C44.6127415,68 48.8901182,64.0893228 49.3900713,58.8937089 L49.6122727,56.2679685 L55.3339584,56.2679685 C59.0002813,56.2679685 62,53.2511604 62,49.5639505 L62,41.183928 C62,37.4967181 59.0002813,34.47991 55.3339584,34.47991 Z M55.3339584,54.0332958 L49.8344741,54.0332958 L51.4454341,36.7145826 L55.2784081,36.7145826 C57.7226233,36.7145826 59.7224358,38.7257881 59.7224358,41.183928 L59.7224358,49.5639505 L59.7779861,49.5639505 C59.7779861,52.0220904 57.7781737,54.0332958 55.3339584,54.0332958 Z M40.8908683,31.127901 C40.8908683,30.513366 41.3908214,30.0105646 42.0018752,30.0105646 L43.6683856,30.0105646 C44.2794394,30.0105646 44.7793925,30.513366 44.7793925,31.127901 C44.7793925,31.742436 44.2794394,32.2452373 43.6683856,32.2452373 L42.0018752,32.2452373 C41.3908214,32.2452373 40.8908683,31.742436 40.8908683,31.127901 Z M22.6148042,25.2618852 L21.3926966,20.9601403 C20.6705421,18.4461336 21.0038442,15.7645264 22.3370525,13.5298537 L22.7814552,12.8035851 C23.3925091,11.6862488 23.7258111,10.5689124 23.7258111,9.39570928 C23.7258111,8.7811743 24.2257643,8.27837295 24.8368181,8.27837295 C25.4478719,8.27837295 25.947825,8.7811743 25.947825,9.39570928 C25.947825,10.9599802 25.5034222,12.4683842 24.670167,13.9209214 L24.2257643,14.6471901 C23.225858,16.3790614 22.9481063,18.3902668 23.5036098,20.2897385 L24.7257174,24.6473502 C24.8923684,25.2618852 24.5590663,25.8764202 23.9480125,26.0440207 C23.8924622,26.0998875 23.7813615,26.0998875 23.6702608,26.0998875 C23.225858,26.0998875 22.7259049,25.7646866 22.6148042,25.2618852 Z M30.9473562,25.2618852 L29.7252486,20.7925399 C29.0030941,18.2785331 29.3363962,15.5969259 30.6696045,13.3622533 L31.1140073,12.6359847 C32.0028128,11.0717138 32.2805645,9.17224202 31.8917121,7.38450388 L30.8918059,3.36209308 C30.7807052,2.7475581 31.1140073,2.18888993 31.7250611,2.02128948 C32.3361149,1.90955585 32.8916183,2.24475675 33.0582694,2.85929173 L34.0581756,6.93756935 C34.5581287,9.33984247 34.1692763,11.7979824 33.002719,13.8650546 L32.5583163,14.6471901 C31.55841,16.3790614 31.2806583,18.3902668 31.8361618,20.2897385 L33.0582694,24.6473502 C33.2249204,25.2618852 32.8916183,25.8764202 32.2805645,26.0440207 C32.2250142,26.0998875 32.1139135,26.0998875 32.0028128,26.0998875 C31.55841,26.0998875 31.0584569,25.7646866 30.9473562,25.2618852 Z M39.2799082,25.2618852 L38.0578006,20.9601403 C37.3356461,18.4461336 37.6689482,15.7645264 39.0021565,13.5298537 C39.2799082,13.0270524 39.9465124,12.8035851 40.5020158,13.138786 C41.001969,13.4181201 41.2241703,14.0885219 40.8908683,14.6471901 C39.890962,16.3790614 39.6132103,18.3902668 40.1687138,20.2897385 L41.3908214,24.6473502 C41.5574724,25.2618852 41.2241703,25.8764202 40.6131165,26.0440207 C40.5575662,26.0998875 40.4464655,26.0998875 40.3353648,26.0998875 C39.890962,26.0998875 39.3910089,25.7646866 39.2799082,25.2618852 Z" id="Combined-Shape" fill="#999999" fill-rule="nonzero" mask="url(#mask-2)"></path>
            </g>
        </g>
    </g>
</svg>