<?xml version="1.0" encoding="UTF-8" standalone="no"?>
<svg width="60px" height="67px" viewBox="0 0 60 67" version="1.1" xmlns="http://www.w3.org/2000/svg" xmlns:xlink="http://www.w3.org/1999/xlink">
    <!-- Generator: Sketch 43.2 (39069) - http://www.bohemiancoding.com/sketch -->
    <title>facebook</title>
    <desc>Created with Sketch.</desc>
    <defs>
        <rect id="path-1" x="0" y="0" width="70" height="70"></rect>
    </defs>
    <g id="Page-1" stroke="none" stroke-width="1" fill="none" fill-rule="evenodd">
        <g id="Desktop-HD-Copy" transform="translate(-1191.000000, -3740.000000)">
            <g id="facebook" transform="translate(1186.000000, 3738.000000)">
                <mask id="mask-2" fill="white">
                    <use xlink:href="#path-1"></use>
                </mask>
                <g id="Mask"></g>
                <path d="M41.5941403,49.4764125 C46.7944406,49.0204101 51.8714597,46.7724218 55.7937588,42.7533978 C61.9112741,36.4833978 63.8672822,27.4633978 60.9133107,19.2133978 C60.743657,18.7433978 60.9931478,18.2233978 61.4621906,18.0533978 C61.9312333,17.8833978 62.4501743,18.1333978 62.6198281,18.6033978 C64.146712,22.8633978 64.4660602,27.4733978 63.5379543,31.9133978 C62.5898892,36.4733978 60.3644309,40.6633978 57.0911111,44.0133978 C52.8107029,48.4010397 47.2740205,50.8322709 41.5988134,51.2927322 L39.6336043,63.798152 C39.4130081,65.5991786 38.5907859,67.0279261 37.2772358,67.913347 C36.2444444,68.6075975 34.8907859,68.9798768 33.3666667,68.9798768 L17.9750678,68.9798768 C16.6214092,68.9798768 15.3680217,68.4667351 14.4154472,67.611499 C14.0945799,67.8731006 13.6934959,68.0340862 13.2523035,68.0340862 L6.79485095,68.0340862 C5.81219512,68.0340862 5,67.2291581 5,66.2330595 L5,48.5648871 C5,47.5788501 5.80216802,46.7638604 6.79485095,46.7638604 L13.2523035,46.7638604 C13.8840108,46.7638604 14.4355014,47.0858316 14.7563686,47.5788501 C15.1875339,47.4379877 16.4108401,46.9852156 17.604065,46.1199179 C19.4390244,44.7917864 20.3715447,43.1416838 20.3715447,41.1897331 L20.3715447,34.8811088 C20.3715447,34.3579055 20.7124661,33.8950719 21.2138211,33.7340862 C21.3441734,33.6837782 24.4525745,32.7379877 26.7387534,34.4182752 C28.1926829,35.4848049 28.9246612,37.2858316 28.9246612,39.7609856 L28.9246612,45.0835729 L36.3948509,45.0835729 C38.912341,45.0835729 41.0912261,46.9927573 41.5941403,49.4764125 Z M38.7273611,3.82 C32.6797032,3.89 27.0212511,6.32 22.7998661,10.64 C16.6823509,16.91 14.7263427,25.93 17.6803142,34.18 C17.849968,34.65 17.6004771,35.17 17.1314344,35.34 C17.0216584,35.37 16.9218621,35.39 16.8220657,35.39 C16.4528193,35.39 16.1035321,35.16 15.9737969,34.79 C14.446913,30.53 14.1275647,25.92 15.0556706,21.48 C16.0037358,16.92 18.2391737,12.73 21.5025138,9.38 C26.0632063,4.7 32.1807215,2.08 38.6974222,2 L38.9868315,2 C45.4137154,2 51.4713529,4.47 56.0719639,8.98 L56.2116788,9.12 L56.1817399,6.37 C56.1817399,5.87 56.5809252,5.46 57.0799069,5.45 C57.5788885,5.46 57.9880535,5.85 57.9980331,6.35 L58.0579109,11.29 C58.0579109,11.79 57.6587256,12.2 57.1597439,12.21 L52.229805,12.27 L52.2198254,12.27 C51.7208437,12.27 51.3216584,11.87 51.3116788,11.37 C51.3116788,10.87 51.7108641,10.46 52.2098458,10.45 L54.954245,10.42 L54.8145301,10.28 C50.4833692,6.04 44.7650393,3.74 38.7273611,3.82 Z M12.6406504,65.6394251 L12.6406504,49.1887064 L7.39647696,49.1887064 L7.39647696,65.6394251 L12.6406504,65.6394251 Z M39.2826558,50.5470226 C39.2926829,50.4967146 39.2926829,50.4665298 39.2926829,50.4564682 C39.2325203,48.8466119 37.9089431,47.4882957 36.3948509,47.4882957 L27.7214092,47.4882957 C27.0596206,47.4882957 26.5181572,46.9449692 26.5181572,46.2809035 L26.5181572,39.750924 C26.5181572,38.0907598 26.1070461,36.9437372 25.3149051,36.3601643 C24.5528455,35.7967146 23.5,35.786653 22.7780488,35.8671458 L22.7780488,41.1897331 C22.7780488,43.9466119 21.4544715,46.3513347 18.9476965,48.1322382 C17.1327913,49.4301848 15.3279133,49.9433265 15.2476965,49.9634497 C15.1875339,49.9835729 15.1173442,49.9936345 15.0571816,50.0036961 L15.0571816,64.0094456 C15.0772358,64.0698152 15.09729,64.1301848 15.1073171,64.1905544 C15.3680217,65.5689938 16.5712737,66.575154 17.9750678,66.575154 L33.3666667,66.575154 C36.8761518,66.575154 37.1569106,64.2609856 37.2471545,63.4963039 C37.2571816,63.4862423 37.2571816,63.4661191 37.2571816,63.4560575 L39.2826558,50.5470226 Z M44.767857,15.5396829 L44.767857,19.2063496 L42.5873008,19.2063496 C41.7910049,19.2063496 41.2539674,19.3730164 40.97619,19.70635 C40.6984126,20.0396827 40.5595235,20.539683 40.5595235,21.2063493 L40.5595235,23.8313497 L44.6289679,23.8313497 L44.087301,27.9424606 L40.5595235,27.9424606 L40.5595235,38.4841269 L36.3095234,38.4841269 L36.3095234,27.9424606 L32.767857,27.9424606 L32.767857,23.8313497 L36.3095234,23.8313497 L36.3095234,20.8035716 C36.3095234,19.0813501 36.7910048,17.7457012 37.7539675,16.7966273 C38.716931,15.8475535 39.9993385,15.3730161 41.6011898,15.3730161 C42.9623009,15.3730161 44.0178569,15.4285723 44.767857,15.5396829 Z" id="Combined-Shape" fill="#999999" fill-rule="nonzero" mask="url(#mask-2)"></path>
            </g>
        </g>
    </g>
</svg>