<?xml version="1.0" encoding="UTF-8" standalone="no"?>
<svg width="57px" height="64px" viewBox="0 0 57 64" version="1.1" xmlns="http://www.w3.org/2000/svg" xmlns:xlink="http://www.w3.org/1999/xlink">
    <!-- Generator: Sketch 43.2 (39069) - http://www.bohemiancoding.com/sketch -->
    <title>lotus</title>
    <desc>Created with Sketch.</desc>
    <defs>
        <rect id="path-1" x="0" y="0" width="70" height="70"></rect>
    </defs>
    <g id="Page-1" stroke="none" stroke-width="1" fill="none" fill-rule="evenodd">
        <g id="Desktop-HD-Copy" transform="translate(-1005.000000, -3742.000000)">
            <g id="lotus" transform="translate(998.000000, 3740.000000)">
                <mask id="mask-2" fill="white">
                    <use xlink:href="#path-1"></use>
                </mask>
                <g id="Mask"></g>
                <path d="M63.4156109,55.1508656 C63.5675502,54.8512799 63.5675502,54.497393 63.4155877,54.1971732 C62.0977218,51.6028972 59.0478812,49.5854985 55.1106356,48.7047736 L54.5605372,48.5817217 L54.8865994,48.1219028 C56.9307198,45.2392476 57.6227789,41.8963572 56.7315402,39.0910528 C56.6465969,38.8235721 56.4572193,38.5997153 56.2054901,38.4698399 C53.9421818,37.2984571 51.0409749,37.199473 48.1845092,38.1933821 L47.8159506,38.3216223 L47.7024785,37.9482523 C47.2771598,36.5487782 46.614914,35.3624867 45.7426045,34.450096 C45.5071468,34.2041366 45.1673718,34.0841147 44.827839,34.1274096 C44.1074522,34.219748 43.3759079,34.4131779 42.6440991,34.7035791 L42.3182272,34.8328938 L42.1673059,34.5164486 C40.6698403,31.3766289 38.4756352,29.0561206 35.8988478,27.8817615 C35.6148949,27.7523695 35.2886182,27.7523695 35.0047936,27.8817709 C32.4274533,29.0560287 30.2323962,31.3787154 28.7354201,34.5208914 L28.5840495,34.8386208 L28.2573668,34.707688 C27.5255954,34.4143978 26.7952589,34.2196465 26.0765662,34.1274276 C25.7375939,34.0841092 25.3971319,34.2043309 25.1621391,34.4498044 C24.2894979,35.363332 23.6266649,36.5502394 23.2020002,37.9482063 L23.0885639,38.3216308 L22.7199631,38.1933847 C19.8632949,37.1994732 16.9620851,37.2984557 14.6985698,38.4699455 C14.4465863,38.6001646 14.257703,38.8234593 14.1727175,39.0910729 C13.281867,41.8957532 13.9740918,45.2386416 16.0177419,48.1228091 L16.3435816,48.582661 L15.7935592,48.7055864 C11.8571604,49.5853385 8.80761474,51.6029739 7.48932383,54.1982761 C7.33682515,54.4977979 7.33682515,54.8510839 7.48948539,55.1509234 C9.29347994,58.7024834 14.4035567,61.1208176 20.2033275,61.1208176 C24.170664,61.1208176 27.9028327,59.9902215 30.4332092,58.0414201 L30.648464,57.8756389 L30.8730548,58.0285343 C32.3325107,59.0220927 33.8420741,59.6360324 35.3093024,59.8238591 C35.4944779,59.8329831 35.5474826,59.8300461 35.5966842,59.8236611 C37.0621892,59.6360339 38.5717568,59.0220925 40.0314296,58.028521 L40.2560239,57.8756439 L40.4712667,58.0414287 C43.001227,59.9900607 46.7340842,61.1208176 50.7009366,61.1208176 C56.500609,61.1208176 61.6107849,58.7025426 63.4156109,55.1508656 Z M46.3424873,51.6141986 L45.5437467,51.8115726 L45.9187425,51.0792331 C46.219602,50.4916763 46.496143,49.8853399 46.7468537,49.2630677 C47.9069533,46.3837208 48.4079676,43.4080153 48.2087431,40.7371751 L48.1882707,40.4627178 L48.4439604,40.360891 C50.6156602,39.4960255 52.8294315,39.3910863 54.6187773,40.0813533 L54.8115716,40.1557266 L54.8516788,40.3584393 C55.4275292,43.268946 53.8828791,46.8020238 50.9935542,49.2093563 C49.5884939,50.3799419 47.9808896,51.2093386 46.3424873,51.6141986 Z M30.7143952,36.0643451 L30.4587657,35.8837554 L30.5907301,35.5999518 C31.7358732,33.1371998 33.3821613,31.2068264 35.2664665,30.1322759 L35.4521819,30.0263691 L35.6379222,30.1322325 C37.5187969,31.2042442 39.1635108,33.1306137 40.3087764,35.5878881 L40.441292,35.8722126 L40.184848,36.0528704 C38.5535556,37.202072 37.0371817,38.7988871 35.7614028,40.7198153 L35.4497603,41.1890524 L35.1370935,40.7204973 C33.865197,38.8144636 32.3457699,37.216831 30.7143952,36.0643451 Z M19.9101699,49.209408 C17.0213923,46.8018425 15.4769743,43.2687502 16.052786,40.3584393 L16.0928988,40.155698 L16.2857291,40.0813372 C18.0763024,39.3908417 20.2894663,39.4955425 22.4606078,40.3609322 L22.7161877,40.4628032 L22.6957216,40.7371751 C22.4965602,43.407171 22.9979876,46.3829099 24.158453,49.2631648 C24.4067076,49.8798247 24.682923,50.4857334 24.9858187,51.0798146 L25.3585152,51.8107989 L24.5618969,51.6142283 C22.9249941,51.210312 21.3162683,50.3803449 19.9101699,49.209408 Z M28.644074,56.1703008 L28.9684573,56.4944271 L28.5863892,56.7480139 C26.4367487,58.1747764 23.3708151,59.0009459 20.2025246,59.0009459 C15.7222367,59.0009459 11.6015179,57.375847 9.82404565,54.8926088 L9.66797146,54.6745635 L9.82383528,54.4563678 C11.2834547,52.4130287 14.3334853,50.9291844 17.9403624,50.4854846 L18.1070847,50.4649753 L18.233385,50.5757237 C18.3470446,50.675388 18.4403135,50.7553432 18.5329587,50.8319616 C20.9229365,52.8245322 23.8278635,53.9636848 26.6111054,54.0105735 L26.794489,54.0136629 L26.904635,54.1603154 C27.4497646,54.8861216 28.0322274,55.558939 28.644074,56.1703008 Z M35.2386785,45.4742773 C37.0669468,50.0130158 37.0517635,54.7619364 35.1809795,57.4177298 L35.0311403,57.6304437 L34.7794327,57.5645481 C33.6330444,57.2644301 32.4614226,56.6387009 31.3139316,55.7193604 C31.2823222,55.6902001 31.2504488,55.6642621 31.1966966,55.6250975 C29.1241265,53.9200785 27.3097866,51.367999 26.145559,48.4773412 C24.990097,45.608946 24.5544038,42.6138178 24.9105415,40.0705845 C24.9229334,40.0169217 24.9312735,39.960509 24.9393897,39.8696564 C25.1496316,38.5606801 25.5758435,37.4244642 26.2023939,36.5342651 L26.3522792,36.3213089 L26.6041766,36.3873667 C27.2303222,36.5515675 27.8628983,36.8118921 28.5233664,37.1809239 C28.5698882,37.2127618 28.619432,37.2411796 28.7015022,37.2817138 C31.3500737,38.8384926 33.7910908,41.8823932 35.2386785,45.4742773 Z M44.7586729,48.476823 C43.5936385,51.3699828 41.7774388,53.9237708 39.6848663,55.6420632 C39.6545159,55.6640737 39.6238576,55.689226 39.5742517,55.733436 C39.3156013,55.9402364 39.0514029,56.134721 38.7826505,56.3164655 L37.9194265,56.9002226 L38.2127424,55.9002757 C39.1513867,52.7003326 38.8096368,48.6202894 37.2257687,44.6886136 C37.0719363,44.3061902 36.907135,43.9279402 36.7316552,43.5541308 L36.6501323,43.3804697 L36.7432575,43.2127441 C38.188041,40.6105787 40.1244913,38.5042887 42.2100856,37.2762282 C42.2770469,37.2464932 42.340455,37.2102331 42.4366201,37.1447765 C43.0584426,36.8031859 43.6835627,36.5483065 44.2995754,36.3872905 L44.5511493,36.3215331 L44.700938,36.5340814 C45.3278458,37.4236556 45.7540444,38.5584202 45.9680957,39.8996567 C45.9721098,39.9567973 45.980923,40.0145643 46.0007798,40.1055903 C46.3494307,42.6171852 45.9136609,45.6115007 44.7586729,48.476823 Z M61.0805699,54.4562844 L61.2365477,54.6745135 L61.0804069,54.8926259 C59.3025531,57.3761017 55.1815556,59.000961 50.7009366,59.0001486 C47.5339403,59.0001486 44.4679643,58.1741124 42.3181593,56.7480694 L41.9359818,56.4945573 L42.260348,56.1703436 C42.872029,55.5589501 43.45452,54.8861003 43.9998687,54.1602636 L44.1099769,54.0137141 L44.2932546,54.0105753 C47.0760677,53.9629156 49.9803333,52.8239415 52.3712893,50.8321424 C52.4751757,50.7453977 52.5740518,50.660594 52.668964,50.576703 L52.7955258,50.4648374 L52.9631716,50.4854936 C56.571104,50.9300391 59.6202788,52.413187 61.0805699,54.4562844 Z M35.4522324,65.6024257 C32.6174712,65.6024257 29.9107519,65.124006 28.8444493,63.9076083 C28.4570297,63.4660367 28.5033153,62.7980118 28.9480808,62.4132845 C29.391588,62.0298027 30.064253,62.0731274 30.4534779,62.5093057 C31.0286391,63.0329035 33.0958232,63.4817568 35.4522324,63.4817568 C37.8072567,63.4817568 39.8736222,63.0332815 40.4220517,62.5389804 C40.8402587,62.073223 41.5126481,62.0297335 41.9564885,62.4133749 C42.4009334,62.7972364 42.447403,63.4659352 42.0608532,63.9067712 C40.9937044,65.1238842 38.2874005,65.6024257 35.4522324,65.6024257 Z M22.5,29.5 C22.5,30.0522847 22.0522847,30.5 21.5,30.5 C20.9477153,30.5 20.5,30.0522847 20.5,29.5 C20.5,28.0798709 20.8257873,27.3163069 21.6850447,26.1079762 C22.3257873,25.2069319 22.5,24.7986209 22.5,23.875 C22.5,22.9513791 22.3257873,22.5430681 21.6850447,21.6420238 C20.8257873,20.4336931 20.5,19.6701291 20.5,18.25 C20.5,16.8298709 20.8257873,16.0663069 21.6850447,14.8579762 C22.3257873,13.9569319 22.5,13.5486209 22.5,12.625 C22.5,11.7013791 22.3257873,11.2930681 21.6850447,10.3920238 C20.8257873,9.18369308 20.5,8.42012913 20.5,7 C20.5,5.57987087 22.5,6.07637913 22.5,7 C22.5,7.92362087 22.6742127,8.33193192 23.3149553,9.23297621 C24.1742127,10.4413069 24.5,11.2048709 24.5,12.625 C24.5,14.0451291 24.1742127,14.8086931 23.3149553,16.0170238 C22.6742127,16.9180681 22.5,17.3263791 22.5,18.25 C22.5,19.1736209 22.6742127,19.5819319 23.3149553,20.4829762 C24.1742127,21.6913069 24.5,22.4548709 24.5,23.875 C24.5,25.2951291 24.1742127,26.0586931 23.3149553,27.2670238 C22.6742127,28.1680681 22.5,28.5763791 22.5,29.5 Z M35.5,20.5 C35.5,21.0522847 35.0522847,21.5 34.5,21.5 C33.9477153,21.5 33.5,21.0522847 33.5,20.5 C33.5,19.0798709 33.8257873,18.3163069 34.6850447,17.1079762 C35.3257873,16.2069319 35.5,15.7986209 35.5,14.875 C35.5,13.9513791 35.3257873,13.5430681 34.6850447,12.6420238 C33.8257873,11.4336931 33.5,10.6701291 33.5,9.25 C33.5,7.82987087 33.8257873,7.06630692 34.6850447,5.85797621 C35.3257873,4.95693192 35.5,4.54862087 35.5,3.625 C35.5,2.70137913 37.5,2.20487087 37.5,3.625 C37.5,5.04512913 37.1742127,5.80869308 36.3149553,7.01702379 C35.6742127,7.91806808 35.5,8.32637913 35.5,9.25 C35.5,10.1736209 35.6742127,10.5819319 36.3149553,11.4829762 C37.1742127,12.6913069 37.5,13.4548709 37.5,14.875 C37.5,16.2951291 37.1742127,17.0586931 36.3149553,18.2670238 C35.6742127,19.1680681 35.5,19.5763791 35.5,20.5 Z M48.5,29.5 C48.5,30.0522847 48.0522847,30.5 47.5,30.5 C46.9477153,30.5 46.5,30.0522847 46.5,29.5 C46.5,28.0798709 46.8257873,27.3163069 47.6850447,26.1079762 C48.3257873,25.2069319 48.5,24.7986209 48.5,23.875 C48.5,22.9513791 48.3257873,22.5430681 47.6850447,21.6420238 C46.8257873,20.4336931 46.5,19.6701291 46.5,18.25 C46.5,16.8298709 46.8257873,16.0663069 47.6850447,14.8579762 C48.3257873,13.9569319 48.5,13.5486209 48.5,12.625 C48.5,11.7013791 48.3257873,11.2930681 47.6850447,10.3920238 C46.8257873,9.18369308 48.6742127,8.33193192 49.3149553,9.23297621 C50.1742127,10.4413069 50.5,11.2048709 50.5,12.625 C50.5,14.0451291 50.1742127,14.8086931 49.3149553,16.0170238 C48.6742127,16.9180681 48.5,17.3263791 48.5,18.25 C48.5,19.1736209 48.6742127,19.5819319 49.3149553,20.4829762 C50.1742127,21.6913069 50.5,22.4548709 50.5,23.875 C50.5,25.2951291 50.1742127,26.0586931 49.3149553,27.2670238 C48.6742127,28.1680681 48.5,28.5763791 48.5,29.5 Z" id="Fill-1" fill="#999999" fill-rule="nonzero" mask="url(#mask-2)"></path>
            </g>
        </g>
    </g>
</svg>