<?xml version="1.0" encoding="UTF-8" standalone="no"?>
<svg width="47px" height="59px" viewBox="0 0 47 59" version="1.1" xmlns="http://www.w3.org/2000/svg" xmlns:xlink="http://www.w3.org/1999/xlink">
    <!-- Generator: Sketch 43.2 (39069) - http://www.bohemiancoding.com/sketch -->
    <title>Combined Shape</title>
    <desc>Created with Sketch.</desc>
    <defs>
        <rect id="path-1" x="0" y="0" width="70" height="70"></rect>
    </defs>
    <g id="Page-1" stroke="none" stroke-width="1" fill="none" fill-rule="evenodd">
        <g id="Desktop-HD-Copy" transform="translate(-805.000000, -3745.000000)">
            <g id="Combined-Shape" transform="translate(794.000000, 3740.000000)">
                <mask id="mask-2" fill="white">
                    <use xlink:href="#path-1"></use>
                </mask>
                <g id="Mask"></g>
                <path d="M21,43 L49,43 L49,37 L39,37 C37.895,37 37,36.104 37,35 L37,21 C37,19.895 37.895,19 39,19 L39,18 C39,17.448 39.448,17 40,17 C40.552,17 41,17.448 41,18 L41,19 L46,19 L46,18 C46,17.448 46.448,17 47,17 C47.552,17 48,17.448 48,18 L48,19 L49,19 L49,9 C49,7.95228475 48.0477153,7 47,7 L23,7 C21.9522847,7 21,7.95228475 21,9 L21,43 Z M21,45 L21,49 C21,50.0477153 21.9522847,51 23,51 L47,51 C48.0477153,51 49,50.0477153 49,49 L49,45 L21,45 Z M51,19 L53,19 L53,18 C53,17.448 53.448,17 54,17 C54.552,17 55,17.448 55,18 L55,19 C56.105,19 57,19.895 57,21 L57,35 C57,36.104 56.105,37 55,37 L51,37 L51,49 C51,51.1522847 49.1522847,53 47,53 L23,53 C20.8477153,53 19,51.1522847 19,49 L19,9 C19,6.84771525 20.8477153,5 23,5 L47,5 C49.1522847,5 51,6.84771525 51,9 L51,19 Z M57,62 C57.5522847,62 58,62.4477153 58,63 C58,63.5522847 57.5522847,64 57,64 C55.5798709,64 54.8163069,63.6742127 53.6079762,62.8149553 C52.7069319,62.1742127 52.2986209,62 51.375,62 C50.4513791,62 50.0430681,62.1742127 49.1420238,62.8149553 C47.9336931,63.6742127 47.1701291,64 45.75,64 C44.3298709,64 43.5663069,63.6742127 42.3579762,62.8149553 C41.4569319,62.1742127 41.0486209,62 40.125,62 C39.2013791,62 38.7930681,62.1742127 37.8920238,62.8149553 C36.6836931,63.6742127 35.9201291,64 34.5,64 C33.0798709,64 32.3163069,63.6742127 31.1079762,62.8149553 C30.2069319,62.1742127 29.7986209,62 28.875,62 C27.9513791,62 27.5430681,62.1742127 26.6420238,62.8149553 C25.4336931,63.6742127 24.6701291,64 23.25,64 C21.8298709,64 21.0663069,63.6742127 19.8579762,62.8149553 C18.9569319,62.1742127 18.5486209,62 17.625,62 C16.7013791,62 16.2930681,62.1742127 15.3920238,62.8149553 C14.1836931,63.6742127 13.4201291,64 12,64 C11.4477153,64 11,63.5522847 11,63 C11,62.4477153 11.4477153,62 12,62 C12.9236209,62 13.3319319,61.8257873 14.2329762,61.1850447 C15.4413069,60.3257873 16.2048709,60 17.625,60 C19.0451291,60 19.8086931,60.3257873 21.0170238,61.1850447 C21.9180681,61.8257873 22.3263791,62 23.25,62 C24.1736209,62 24.5819319,61.8257873 25.4829762,61.1850447 C26.6913069,60.3257873 27.4548709,60 28.875,60 C30.2951291,60 31.0586931,60.3257873 32.2670238,61.1850447 C33.1680681,61.8257873 33.5763791,62 34.5,62 C35.4236209,62 35.8319319,61.8257873 36.7329762,61.1850447 C37.9413069,60.3257873 38.7048709,60 40.125,60 C41.5451291,60 42.3086931,60.3257873 43.5170238,61.1850447 C44.4180681,61.8257873 44.8263791,62 45.75,62 C46.6736209,62 47.0819319,61.8257873 47.9829762,61.1850447 C49.1913069,60.3257873 49.9548709,60 51.375,60 C52.7951291,60 53.5586931,60.3257873 54.7670238,61.1850447 C55.6680681,61.8257873 56.0763791,62 57,62 Z M55,34 L55,24 C55,23.448 54.552,23 54,23 L40,23 C39.448,23 39,23.448 39,24 L39,34 C39,34.552 39.448,35 40,35 L54,35 C54.552,35 55,34.552 55,34 Z M34,11 C33.4477153,11 33,10.5522847 33,10 C33,9.44771525 33.4477153,9 34,9 L36,9 C36.5522847,9 37,9.44771525 37,10 C37,10.5522847 36.5522847,11 36,11 L34,11 Z M32,49 C31.4477153,49 31,48.5522847 31,48 C31,47.4477153 31.4477153,47 32,47 L38,47 C38.5522847,47 39,47.4477153 39,48 C39,48.5522847 38.5522847,49 38,49 L32,49 Z M46,11 C45.4477153,11 45,10.5522847 45,10 C45,9.44771525 45.4477153,9 46,9 C46.5522847,9 47,9.44771525 47,10 C47,10.5522847 46.5522847,11 46,11 Z M50.605736,25 L52.067665,26.4619289 L45.5295939,33 L42.0372081,29.5076142 L43.4991371,28.0456853 L45.5295939,30.0761421 L50.605736,25 L50.605736,25 Z" fill="#999999" fill-rule="nonzero" mask="url(#mask-2)"></path>
            </g>
        </g>
    </g>
</svg>